<?xml version="1.0" encoding="UTF-8" standalone="no"?>
<!-- Created with Inkscape (http://www.inkscape.org/) -->

<svg
   version="1.1"
   id="svg2"
   xml:space="preserve"
   width="587.98315"
   height="511.11465"
   viewBox="0 0 587.98315 511.11466"
   sodipodi:docname="2874083ab67af2eae52b62f2463ec2f5.eps"
   xmlns:inkscape="http://www.inkscape.org/namespaces/inkscape"
   xmlns:sodipodi="http://sodipodi.sourceforge.net/DTD/sodipodi-0.dtd"
   xmlns="http://www.w3.org/2000/svg"
   xmlns:svg="http://www.w3.org/2000/svg"><defs
     id="defs6"><clipPath
       clipPathUnits="userSpaceOnUse"
       id="clipPath142"><path
         d="m 355.023,328.879 c -5.875,0 -12.203,2.09 -17.73,4.41 -82.75,34.59 -153.883,96.332 -199.773,173.391 -41.4575,69.609 -77.6684,162.011 -77.645,245 0.0039,8.879 0.418,17.66 1.2891,26.289 89.9449,-27 170.6799,-83.77 226.4879,-159.321 55.258,-74.789 85.766,-167.546 85.743,-260.539 0,-0.918 0,-1.828 -0.008,-2.75 -0.02,-2.82 -0.125,-5.757 -0.508,-8.621 -0.746,-5.558 -2.535,-10.816 -6.781,-14.269 -3.203,-2.598 -7.028,-3.59 -11.075,-3.59"
         id="path140" /></clipPath><clipPath
       clipPathUnits="userSpaceOnUse"
       id="clipPath232"><path
         d="m 2088.16,16.6719 c 2.4,13.4179 9.69,25.9179 20.22,34.5898 10.3,8.4571 22.97,13.3672 36.21,13.3672 0.94,0 1.88,-0.0195 2.82,-0.0703 l 1.3,-47.0703 -0.13,1.3515 -60.42,-2.1679"
         id="path230" /></clipPath></defs><sodipodi:namedview
     id="namedview4"
     pagecolor="#ffffff"
     bordercolor="#666666"
     borderopacity="1.0"
     inkscape:pageshadow="2"
     inkscape:pageopacity="0.0"
     inkscape:pagecheckerboard="0" /><g
     id="g8"
     inkscape:groupmode="layer"
     inkscape:label="ink_ext_XXXXXX"
     transform="matrix(1.3333333,0,0,-1.3333333,5.2083332e-4,511.11465)"><g
       id="g10"
       transform="scale(0.1)"><path
         d="m 2035.55,2888.02 v 569.73 h 451.31 v -569.73 h -451.31"
         style="fill:#e7e8e5;fill-opacity:1;fill-rule:nonzero;stroke:none"
         id="path12" /><path
         d="m 2232.76,2900.79 v -15.2 h 62.59 v 15.2 h -62.59"
         style="fill:#dadbd8;fill-opacity:1;fill-rule:nonzero;stroke:none"
         id="path14" /><path
         d="m 2275.66,3261.6 -83.14,-12.16 -31.02,-78.08 52.09,-65.9 83.13,12.15 31.03,78.09 -52.09,65.9"
         style="fill:#dadbd8;fill-opacity:1;fill-rule:nonzero;stroke:none"
         id="path16" /><path
         d="m 2314.52,3211.13 -83.14,-12.17 -31.03,-78.07 52.1,-65.91 83.13,12.16 31.04,78.07 -52.1,65.92"
         style="fill:#fafaf9;fill-opacity:1;fill-rule:nonzero;stroke:none"
         id="path18" /><path
         d="m 2241.59,3465.48 v -13 h 62.6 v 13 h -62.6"
         style="fill:#dadbd8;fill-opacity:1;fill-rule:nonzero;stroke:none"
         id="path20" /><path
         d="m 3057.86,3226.99 h -306.55 v -656.2 h 306.55 v 656.2"
         style="fill:#f3f2f1;fill-opacity:1;fill-rule:nonzero;stroke:none"
         id="path22" /><path
         d="m 3070.59,1890.91 h 376.69 v 634.03 h -376.69 v -634.03"
         style="fill:#f3f2f1;fill-opacity:1;fill-rule:nonzero;stroke:none"
         id="path24" /><path
         d="m 3493.12,3238.34 h 357.69 v 582.11 h 12.72 v -582.11 h 331.05 v 595.02 h -701.46 v -595.02"
         style="fill:#f3f2f1;fill-opacity:1;fill-rule:nonzero;stroke:none"
         id="path26" /><path
         d="m 3057.86,1890.91 v 634.03 h -306.55 v -634.03 h 306.55"
         style="fill:#f3f2f1;fill-opacity:1;fill-rule:nonzero;stroke:none"
         id="path28" /><path
         d="m 3863.53,1890.91 h 331.05 v 634.03 h -331.05 v -634.03"
         style="fill:#f3f2f1;fill-opacity:1;fill-rule:nonzero;stroke:none"
         id="path30" /><path
         d="m 3447.28,3226.99 h -376.69 v -656.2 h 376.69 v 656.2"
         style="fill:#f3f2f1;fill-opacity:1;fill-rule:nonzero;stroke:none"
         id="path32" /><path
         d="m 3863.53,3226.99 v -656.2 h 331.05 v 656.2 h -331.05"
         style="fill:#f3f2f1;fill-opacity:1;fill-rule:nonzero;stroke:none"
         id="path34" /><path
         d="m 3057.86,1879.57 h -306.55 v -571.34 h 306.55 v 571.34"
         style="fill:#f3f2f1;fill-opacity:1;fill-rule:nonzero;stroke:none"
         id="path36" /><path
         d="m 3057.86,3238.34 v 582.11 h 12.73 v -582.11 h 376.69 v 595.02 h -695.97 v -595.02 h 306.55"
         style="fill:#f3f2f1;fill-opacity:1;fill-rule:nonzero;stroke:none"
         id="path38" /><path
         d="m 3070.59,1308.23 h 376.69 v 571.34 h -376.69 v -571.34"
         style="fill:#f3f2f1;fill-opacity:1;fill-rule:nonzero;stroke:none"
         id="path40" /><path
         d="m 3863.53,1879.57 v -571.34 h 331.05 v 571.34 h -331.05"
         style="fill:#f3f2f1;fill-opacity:1;fill-rule:nonzero;stroke:none"
         id="path42" /><path
         d="m 3850.81,3226.99 h -357.69 v -656.2 h 357.69 v 656.2"
         style="fill:#f3f2f1;fill-opacity:1;fill-rule:nonzero;stroke:none"
         id="path44" /><path
         d="m 3850.81,1308.23 v 571.34 h -357.69 v -571.34 h 357.69"
         style="fill:#f3f2f1;fill-opacity:1;fill-rule:nonzero;stroke:none"
         id="path46" /><path
         d="m 3493.12,1890.91 h 357.69 v 634.03 h -357.69 v -634.03"
         style="fill:#f3f2f1;fill-opacity:1;fill-rule:nonzero;stroke:none"
         id="path48" /><path
         d="M 686.305,3226.99 H 379.754 v -656.2 h 306.551 v 656.2"
         style="fill:#f3f2f1;fill-opacity:1;fill-rule:nonzero;stroke:none"
         id="path50" /><path
         d="m 699.043,1890.91 h 376.687 v 634.03 H 699.043 v -634.03"
         style="fill:#f3f2f1;fill-opacity:1;fill-rule:nonzero;stroke:none"
         id="path52" /><path
         d="m 1121.57,3238.34 h 357.68 v 582.11 h 12.73 v -582.11 h 331.05 v 595.02 h -701.46 v -595.02"
         style="fill:#f3f2f1;fill-opacity:1;fill-rule:nonzero;stroke:none"
         id="path54" /><path
         d="m 686.305,1890.91 v 634.03 H 379.754 v -634.03 h 306.551"
         style="fill:#f3f2f1;fill-opacity:1;fill-rule:nonzero;stroke:none"
         id="path56" /><path
         d="m 1491.98,1890.91 h 331.05 v 634.03 h -331.05 v -634.03"
         style="fill:#f3f2f1;fill-opacity:1;fill-rule:nonzero;stroke:none"
         id="path58" /><path
         d="M 1075.73,3226.99 H 699.043 v -656.2 h 376.687 v 656.2"
         style="fill:#f3f2f1;fill-opacity:1;fill-rule:nonzero;stroke:none"
         id="path60" /><path
         d="m 1491.98,3226.99 v -656.2 h 331.05 v 656.2 h -331.05"
         style="fill:#f3f2f1;fill-opacity:1;fill-rule:nonzero;stroke:none"
         id="path62" /><path
         d="M 686.305,1879.57 H 379.754 v -571.34 h 306.551 v 571.34"
         style="fill:#f3f2f1;fill-opacity:1;fill-rule:nonzero;stroke:none"
         id="path64" /><path
         d="m 686.305,3238.34 v 582.11 h 12.738 v -582.11 h 376.687 v 595.02 H 379.754 v -595.02 h 306.551"
         style="fill:#f3f2f1;fill-opacity:1;fill-rule:nonzero;stroke:none"
         id="path66" /><path
         d="m 699.043,1308.23 h 376.687 v 571.34 H 699.043 v -571.34"
         style="fill:#f3f2f1;fill-opacity:1;fill-rule:nonzero;stroke:none"
         id="path68" /><path
         d="m 1491.98,1879.57 v -571.34 h 331.05 v 571.34 h -331.05"
         style="fill:#f3f2f1;fill-opacity:1;fill-rule:nonzero;stroke:none"
         id="path70" /><path
         d="m 1479.25,3226.99 h -357.68 v -656.2 h 357.68 v 656.2"
         style="fill:#f3f2f1;fill-opacity:1;fill-rule:nonzero;stroke:none"
         id="path72" /><path
         d="m 1479.25,1308.23 v 571.34 h -357.68 v -571.34 h 357.68"
         style="fill:#f3f2f1;fill-opacity:1;fill-rule:nonzero;stroke:none"
         id="path74" /><path
         d="m 1121.57,1890.91 h 357.68 v 634.03 h -357.68 v -634.03"
         style="fill:#f3f2f1;fill-opacity:1;fill-rule:nonzero;stroke:none"
         id="path76" /><path
         d="M 3474.47,296.539 V 2.64844 h 903.8 V 296.539 h -903.8"
         style="fill:#e7e8e5;fill-opacity:1;fill-rule:nonzero;stroke:none"
         id="path78" /><path
         d="m 3436.55,378.711 v -82.172 h 973.32 v 82.172 h -505.62 -467.7"
         style="fill:#dadbd8;fill-opacity:1;fill-rule:nonzero;stroke:none"
         id="path80" /><path
         d="m 3923.21,2.64844 h 455.06 V 296.539 h 31.6 v 82.172 H 3904.25 V 304.148 L 3923.21,2.64844"
         style="fill:#dadbd8;fill-opacity:1;fill-rule:nonzero;stroke:none"
         id="path82" /><path
         d="M 3600.88,249.148 V 204.91 h 183.28 v 44.238 h -183.28"
         style="fill:#dadbd8;fill-opacity:1;fill-rule:nonzero;stroke:none"
         id="path84" /><path
         d="m 3812.63,56.1797 h -235.35 v 93.4293 h 235.35 V 56.1797"
         style="fill:#f3f2f1;fill-opacity:1;fill-rule:nonzero;stroke:none"
         id="path86" /><path
         d="m 3697.74,703.191 -1.31,110.489 387.13,-33.192 12.08,-109.277 -397.9,31.98"
         style="fill:#e7e8e5;fill-opacity:1;fill-rule:nonzero;stroke:none"
         id="path88" /><path
         d="m 3781.12,763.68 -1.7,-19.86 242.15,-20.769 1.72,19.871 -242.17,20.758"
         style="fill:#dadbd8;fill-opacity:1;fill-rule:nonzero;stroke:none"
         id="path90" /><path
         d="m 3651.59,808.102 -0.15,110.488 386.76,-37.27 9.85,-98.742 -396.46,25.524"
         style="fill:#dadbd8;fill-opacity:1;fill-rule:nonzero;stroke:none"
         id="path92" /><path
         d="M 3651.46,903.551 3651.28,829 4028.17,801.199 4021.87,870 3651.46,903.551"
         style="fill:#ffffff;fill-opacity:1;fill-rule:nonzero;stroke:none"
         id="path94" /><path
         d="m 3999.53,841.34 c -0.04,-0.352 -4.9,-0.199 -13.67,0.371 -9.76,0.769 -22.19,1.738 -37.05,2.918 -31.27,2.68 -74.42,6.742 -122.04,11.562 -47.64,4.809 -90.74,9.457 -121.92,13.079 -14.79,1.832 -27.18,3.351 -36.89,4.558 -8.71,1.203 -13.51,2.031 -13.48,2.383 0.03,0.359 4.88,0.211 13.64,-0.359 9.76,-0.774 22.18,-1.743 37.04,-2.911 31.26,-2.691 74.44,-6.75 122.09,-11.57 47.65,-4.812 90.76,-9.461 121.93,-13.082 14.79,-1.828 27.17,-3.359 36.89,-4.559 8.7,-1.191 13.49,-2.019 13.46,-2.39"
         style="fill:#f3f2f1;fill-opacity:1;fill-rule:nonzero;stroke:none"
         id="path96" /><path
         d="m 3998.74,832 c -0.02,-0.352 -4.92,-0.359 -13.77,-0.059 -9.85,0.469 -22.39,1.059 -37.4,1.778 -31.57,1.722 -75.15,4.461 -123.26,7.801 -48.12,3.351 -91.67,6.671 -123.15,9.339 -14.96,1.36 -27.47,2.52 -37.28,3.411 -8.78,0.929 -13.64,1.609 -13.61,1.968 0.03,0.364 4.93,0.364 13.78,0.063 9.84,-0.469 22.39,-1.063 37.4,-1.77 31.57,-1.73 75.15,-4.461 123.27,-7.812 48.1,-3.348 91.63,-6.668 123.13,-9.328 14.96,-1.379 27.46,-2.532 37.27,-3.43 8.79,-0.922 13.65,-1.602 13.62,-1.961"
         style="fill:#f3f2f1;fill-opacity:1;fill-rule:nonzero;stroke:none"
         id="path98" /><path
         d="m 3702.19,601.34 -1.43,110.488 387.16,-32.828 11,-98.609 -396.73,20.949"
         style="fill:#dadbd8;fill-opacity:1;fill-rule:nonzero;stroke:none"
         id="path100" /><path
         d="m 3744.85,599.039 c -1.44,-0.019 -3.55,24.352 -4.73,54.41 -1.18,30.09 -0.96,54.539 0.47,54.629 1.44,0.102 3.56,-24.258 4.74,-54.418 1.17,-30.148 0.96,-54.601 -0.48,-54.621"
         style="fill:#f3f2f1;fill-opacity:1;fill-rule:nonzero;stroke:none"
         id="path102" /><path
         d="m 3759.41,706.859 c 1.44,0.032 3.14,-24.281 3.78,-54.289 0.66,-30.011 0.02,-54.371 -1.42,-54.402 -1.43,-0.039 -3.13,24.273 -3.78,54.293 -0.65,30.008 -0.01,54.367 1.42,54.398"
         style="fill:#f3f2f1;fill-opacity:1;fill-rule:nonzero;stroke:none"
         id="path104" /><path
         d="m 3794.65,658.211 c 67.47,-7.449 146.83,-11.711 215.44,-17.82"
         style="fill:#ffffff;fill-opacity:1;fill-rule:nonzero;stroke:none"
         id="path106" /><path
         d="m 4010.09,640.391 c -0.07,-0.731 -12.17,-0.282 -31.7,0.8 -19.53,1.09 -46.5,2.77 -76.26,4.981 -29.78,2.219 -56.71,4.707 -76.16,7.019 -19.45,2.289 -31.4,4.329 -31.32,5.02 0.07,0.73 12.16,0 31.67,-1.352 21.05,-1.519 47.23,-3.41 76.2,-5.5 29.75,-2.211 56.69,-4.461 76.16,-6.5 19.47,-2.019 31.46,-3.769 31.41,-4.468"
         style="fill:#f3f2f1;fill-opacity:1;fill-rule:nonzero;stroke:none"
         id="path108" /><path
         d="m 4038.37,583.578 c -1.44,-0.066 -3.68,22.024 -5.02,49.332 -1.34,27.309 -1.25,49.512 0.18,49.578 1.44,0.082 3.68,-22.008 5.02,-49.328 1.33,-27.301 1.25,-49.5 -0.18,-49.582"
         style="fill:#f3f2f1;fill-opacity:1;fill-rule:nonzero;stroke:none"
         id="path110" /><path
         d="m 4062.21,582.34 c -1.42,-0.149 -4.77,21.91 -7.46,49.269 -2.69,27.36 -3.72,49.653 -2.29,49.782 1.43,0.148 4.77,-21.911 7.47,-49.27 2.69,-27.351 3.72,-49.641 2.28,-49.781"
         style="fill:#f3f2f1;fill-opacity:1;fill-rule:nonzero;stroke:none"
         id="path112" /><path
         d="m 3852.1,633.469 c 42.67,-2.918 75.16,-5.047 109.16,-5.828"
         style="fill:#ffffff;fill-opacity:1;fill-rule:nonzero;stroke:none"
         id="path114" /><path
         d="m 3961.26,627.641 c -0.03,-1.43 -24.52,-1.301 -54.7,0.32 -30.19,1.609 -54.57,4.078 -54.46,5.508 0.1,1.441 24.59,1.293 54.69,-0.309 30.1,-1.609 54.49,-4.082 54.47,-5.519"
         style="fill:#f3f2f1;fill-opacity:1;fill-rule:nonzero;stroke:none"
         id="path116" /><path
         d="m 3728.16,385.578 -7.27,110.262 388.36,-12.289 16.2,-97.891 -397.29,-0.082"
         style="fill:#e7e8e5;fill-opacity:1;fill-rule:nonzero;stroke:none"
         id="path118" /><path
         d="m 3743.53,399.418 377.91,5.41 -10.5,68.633 -374.53,6.93 7.12,-80.973"
         style="fill:#ffffff;fill-opacity:1;fill-rule:nonzero;stroke:none"
         id="path120" /><path
         d="m 3738.74,493.66 -3.58,110.43 387.73,-25.289 12.9,-98.391 -397.05,13.25"
         style="fill:#f3f2f1;fill-opacity:1;fill-rule:nonzero;stroke:none"
         id="path122" /><path
         d="m 3820.87,555.832 -1.3,-19.902 242.52,-15.828 1.3,19.898 -242.52,15.832"
         style="fill:#dadbd8;fill-opacity:1;fill-rule:nonzero;stroke:none"
         id="path124" /><path
         d="m 4114.8,445.219 c 0,-0.36 -5.28,-0.719 -14.83,-1.071 -10.52,-0.257 -24.11,-0.589 -40.44,-0.988 -34.14,-0.601 -81.29,-1.07 -133.37,-1.281 -52.1,-0.199 -99.26,-0.098 -133.41,0.25 -16.33,0.269 -29.92,0.492 -40.44,0.66 -9.55,0.281 -14.83,0.602 -14.84,0.961 0,0.359 5.26,0.719 14.8,1.07 10.52,0.25 24.1,0.59 40.43,0.989 34.14,0.601 81.31,1.07 133.44,1.281 52.1,0.199 99.28,0.09 133.42,-0.25 16.33,-0.262 29.92,-0.488 40.43,-0.66 9.55,-0.282 14.82,-0.602 14.81,-0.961"
         style="fill:#e7e8e5;fill-opacity:1;fill-rule:nonzero;stroke:none"
         id="path126" /><path
         d="m 4119.25,423.809 c -0.01,-0.368 -5.34,-0.629 -14.96,-0.821 -10.58,-0.058 -24.27,-0.148 -40.73,-0.258 -34.38,0 -81.87,0.372 -134.31,1.09 -52.47,0.731 -99.96,1.668 -134.32,2.61 -16.46,0.57 -30.14,1.039 -40.7,1.398 -9.62,0.442 -14.94,0.852 -14.94,1.211 0,0.359 5.32,0.633 14.94,0.813 10.57,0.07 24.25,0.16 40.71,0.257 34.38,0 81.89,-0.359 134.37,-1.078 52.46,-0.722 99.96,-1.672 134.34,-2.621 16.45,-0.551 30.13,-1.019 40.69,-1.379 9.61,-0.449 14.92,-0.859 14.91,-1.222"
         style="fill:#e7e8e5;fill-opacity:1;fill-rule:nonzero;stroke:none"
         id="path128" /><path
         d="M 4303.44,2.60156 C 4303.44,1.16016 3340.01,0 2151.82,0 963.23,0 -0.00390625,1.16016 -0.00390625,2.60156 -0.00390625,4.03906 963.23,5.19922 2151.82,5.19922 c 1188.19,0 2151.62,-1.16016 2151.62,-2.59766"
         style="fill:#17282f;fill-opacity:1;fill-rule:nonzero;stroke:none"
         id="path130" /><path
         d="m 331.395,1244.28 c -52.922,-8.51 -76.579,-73.54 -71.954,-126.94 4.629,-53.4 26.579,-105.61 20.707,-158.879 -7.46,-67.652 -58.582,-124.84 -64.539,-192.641 -7.023,-79.961 49.508,-150.89 66.399,-229.371 8.219,-38.179 7.066,-78.558 21.285,-114.929 23.977,-61.34 94.27,-100.719 159.098,-89.149 64.828,11.578 117.136,72.867 118.398,138.707 1.172,61.41 -36.719,119.242 -32.113,180.473 3.402,45.269 29.929,88.16 24.25,133.187 -6.754,53.594 -56.41,91.633 -73.934,142.731 -17.519,51.101 -0.687,107.411 -6.738,161.101 -10.852,96.3 -64.25,163.44 -160.859,155.71"
         style="fill:#f03d5f;fill-opacity:1;fill-rule:nonzero;stroke:none"
         id="path132" /><path
         d="M 61.1641,777.969 C 52.1602,688.73 91.625,583.738 137.52,506.68 183.41,429.621 254.543,367.879 337.293,333.289 c 9.332,-3.91 20.949,-7.187 28.805,-0.82 6.429,5.23 7.23,14.601 7.289,22.89 0.629,93.903 -29.934,187.762 -85.735,263.289 -55.808,75.551 -136.543,132.321 -226.4879,159.321"
         style="fill:#f03d5f;fill-opacity:1;fill-rule:nonzero;stroke:none"
         id="path134" /><g
         id="g136"><g
           id="g138"
           clip-path="url(#clipPath142)"><path
             d="m 59.8516,328.879 h 313.566 v 449.09 H 59.8516 Z"
             style="fill:#f03654;fill-opacity:1;fill-rule:nonzero;stroke:none"
             id="path144" /></g></g><path
         d="m 449.898,146.699 c -0.16,-0.07 -1.027,1.653 -2.539,4.973 -1.683,3.84 -3.789,8.68 -6.367,14.617 -5.363,12.742 -13.379,31.082 -23.586,53.602 -20.379,45.05 -50.582,106.379 -88.605,171.531 -38.11,65.117 -76.735,121.539 -105.977,161.398 -14.609,19.95 -26.652,35.942 -35.136,46.86 -3.895,5.16 -7.071,9.359 -9.61,12.718 -2.148,2.954 -3.219,4.551 -3.082,4.661 0.137,0.101 1.473,-1.27 3.879,-4.008 2.73,-3.199 6.152,-7.211 10.355,-12.141 8.965,-10.558 21.461,-26.238 36.465,-45.949 30.043,-39.391 69.254,-95.672 107.485,-160.992 38.133,-65.34 67.922,-127.11 87.5,-172.617 9.812,-22.75 17.34,-41.332 22.14,-54.34 2.227,-6.071 4.043,-11.024 5.489,-14.973 1.207,-3.449 1.757,-5.289 1.589,-5.34"
         style="fill:#17282f;fill-opacity:1;fill-rule:nonzero;stroke:none"
         id="path146" /><path
         d="m 392.453,997.398 c 0.176,0.012 0.504,-2.937 0.969,-8.57 0.437,-6.047 1.035,-14.238 1.781,-24.566 1.402,-21.821 3.379,-52.59 5.817,-90.422 4.82,-76.352 11.589,-181.828 19.777,-298.27 8.207,-116.468 16.277,-221.859 22.199,-298.14 2.891,-37.782 5.238,-68.539 6.91,-90.34 0.703,-10.328 1.266,-18.531 1.672,-24.578 0.328,-5.633 0.422,-8.59 0.246,-8.614 -0.176,-0.007 -0.605,2.922 -1.261,8.512 -0.649,6.039 -1.524,14.219 -2.622,24.5 -2.058,21.789 -4.957,52.481 -8.519,90.219 -6.836,76.223 -15.473,181.582 -23.684,298.082 -8.187,116.48 -14.394,222 -18.3,298.43 -1.762,37.859 -3.188,68.668 -4.208,90.519 -0.351,10.352 -0.625,18.559 -0.835,24.629 -0.133,5.629 -0.118,8.602 0.058,8.609"
         style="fill:#17282f;fill-opacity:1;fill-rule:nonzero;stroke:none"
         id="path148" /><path
         d="M 310.367,273.949 H 533.855 V 109.879 C 533.855,50.6211 485.824,2.60156 426.574,2.60156 369.551,2.60156 322.488,47.1992 319.441,104.16 l -9.074,169.789"
         style="fill:#33535f;fill-opacity:1;fill-rule:nonzero;stroke:none"
         id="path150" /><path
         d="m 3204.76,1565.95 c -10.06,-7.55 -28.1,-6.38 -39.85,-4.26 6.65,17.76 9.93,35.96 11.47,51.22 8.08,0.49 21.67,-0.18 29.55,-6.84 4.85,-4.1 7.2,-10.26 7.2,-18.86 0,-10.08 -2.74,-17.04 -8.37,-21.26 z m 16.17,57.87 c -13.48,11.39 -31.9,12.85 -43.25,12.46 0.06,8.33 -0.31,13.46 -0.31,13.46 h -235.88 c 0,0 -7.41,-155.73 111.85,-161.24 53.37,-2.46 83.91,21.46 101.39,51.56 5.71,-1.35 15.62,-3.26 26.76,-3.26 12.42,0 26.27,2.38 37.16,10.51 8.09,6.04 17.72,17.86 17.72,39.9 0,19.48 -8.39,30.66 -15.44,36.61"
         style="fill:#f03d5f;fill-opacity:1;fill-rule:nonzero;stroke:none"
         id="path152" /><path
         d="m 3108.46,1663.95 c -0.31,0.16 1.81,1.77 1.92,5.92 0.02,4 -3.01,10.2 -9.74,14.19 -3.35,1.86 -7.76,2.98 -12.51,4.29 -4.71,1.35 -10.28,2.74 -15.1,6.75 -4.82,3.94 -7.85,10.63 -7.76,17.56 -0.04,6.94 2.09,14.08 6,20.58 8.07,13.11 22.69,21.4 32.93,34.35 9.98,12.99 13.6,32.06 8.51,49.9 -2.36,8.94 -7.22,17.38 -13.88,24.24 -6.77,6.79 -15.89,11.31 -25.23,15.98 -9.23,4.85 -19.47,9.55 -26.67,19.08 -3.4,4.68 -5.89,10.05 -6.96,15.86 -1.15,5.75 -0.83,12.2 2.23,17.83 1.6,2.92 4.06,5.22 6.52,6.96 l 2.67,-4.46 c -18.16,-10.13 -25.94,-32.86 -22.69,-51.79 1.6,-9.65 6.11,-18.36 12.93,-24.82 6.75,-6.61 15.33,-12.08 20.46,-21.04 2.48,-4.44 3.75,-9.6 3.47,-14.59 -0.28,-4.99 -1.87,-9.67 -4.07,-13.8 -4.49,-8.27 -11.08,-14.61 -18.17,-19.45 -14.5,-9.17 -29.45,-13.78 -40.46,-22.18 -11.3,-8.03 -16.8,-20.07 -17.7,-30.92 -1.12,-10.87 1.31,-20.41 4.65,-27.31 6.97,-14.07 15.93,-17.79 15.31,-18.34 -0.04,-0.08 -0.53,0.15 -1.46,0.69 -0.89,0.59 -2.38,1.25 -3.97,2.62 -3.37,2.49 -7.85,7.04 -11.66,14.14 -3.75,7.05 -6.63,16.94 -5.73,28.46 0.47,5.73 1.85,11.89 4.89,17.79 2.96,5.94 7.74,11.33 13.47,15.76 11.51,9.02 26.73,13.99 40.26,22.82 6.56,4.57 12.64,10.62 16.56,18.03 4.02,7.32 4.9,16.46 0.47,23.94 -4.31,7.56 -12.45,12.88 -19.75,19.83 -7.56,7.04 -12.75,16.94 -14.5,27.5 -3.59,20.78 4.6,45.58 25.18,57.22 l 2.68,-4.46 c -1.83,-1.34 -3.64,-2.98 -4.81,-5.14 -4.55,-8.57 -1.44,-20.18 4.36,-28.08 5.89,-8.01 15.69,-12.88 24.8,-17.59 9.25,-4.7 18.9,-9.43 26.43,-17.02 7.31,-7.59 12.5,-16.83 14.99,-26.48 5.34,-19.25 1.32,-39.76 -9.73,-53.83 -11.24,-13.72 -25.72,-21.69 -33.2,-33.63 -7.45,-11.55 -8.14,-26.89 0.52,-34 8.52,-6.88 19.56,-6.9 26.76,-11.51 7.19,-4.66 10.1,-11.48 9.74,-15.96 -0.14,-2.28 -1.1,-3.81 -1.72,-4.73 l -1.24,-1.16"
         style="fill:#17282f;fill-opacity:1;fill-rule:nonzero;stroke:none"
         id="path154" /><path
         d="M 1637.4,2557.82 H 486.668 c -17.844,0 -32.305,14.46 -32.305,32.31 v 276.14 c 0,17.84 14.461,32.3 32.305,32.3 H 1637.4 c 17.84,0 32.3,-14.46 32.3,-32.3 v -276.14 c 0,-17.85 -14.46,-32.31 -32.3,-32.31"
         style="fill:#33535f;fill-opacity:1;fill-rule:nonzero;stroke:none"
         id="path156" /><path
         d="m 710.539,2671.37 c -25.59,-31.91 -72.195,-37.03 -104.101,-11.45 -31.911,25.59 -37.036,72.2 -11.45,104.1 25.586,31.91 72.196,37.04 104.102,11.45 31.91,-25.59 37.035,-72.2 11.449,-104.1"
         style="fill:#ffffff;fill-opacity:1;fill-rule:nonzero;stroke:none"
         id="path158" /><path
         d="m 694.391,2742.83 c 1.004,-1.03 -16.907,-20.12 -40.004,-42.65 -3.364,-3.24 -6.621,-6.38 -9.785,-9.44 l -1.817,-1.75 -1.742,1.77 c -18.008,18.4 -30.773,32.63 -29.902,33.49 0.863,0.87 15.086,-11.89 33.48,-29.9 l -3.555,0.02 c 3.129,3.08 6.356,6.26 9.684,9.54 23.094,22.53 42.637,39.95 43.641,38.92"
         style="fill:#f03d5f;fill-opacity:1;fill-rule:nonzero;stroke:none"
         id="path160" /><path
         d="m 1551.08,2753.16 c 0,-1.43 -154.49,-2.6 -345.02,-2.6 -190.6,0 -345.056,1.17 -345.056,2.6 0,1.44 154.456,2.61 345.056,2.61 190.53,0 345.02,-1.17 345.02,-2.61"
         style="fill:#ffffff;fill-opacity:1;fill-rule:nonzero;stroke:none"
         id="path162" /><path
         d="m 1268.04,2685.77 c 0,-1.44 -89.31,-2.6 -199.46,-2.6 -110.189,0 -199.49,1.16 -199.49,2.6 0,1.44 89.301,2.61 199.49,2.61 110.15,0 199.46,-1.17 199.46,-2.61"
         style="fill:#ffffff;fill-opacity:1;fill-rule:nonzero;stroke:none"
         id="path164" /><path
         d="M 1637.4,2168.06 H 486.668 c -17.844,0 -32.305,14.46 -32.305,32.3 v 276.15 c 0,17.84 14.461,32.3 32.305,32.3 H 1637.4 c 17.84,0 32.3,-14.46 32.3,-32.3 v -276.15 c 0,-17.84 -14.46,-32.3 -32.3,-32.3"
         style="fill:#33535f;fill-opacity:1;fill-rule:nonzero;stroke:none"
         id="path166" /><path
         d="m 710.539,2281.6 c -25.59,-31.9 -72.195,-37.03 -104.101,-11.44 -31.911,25.58 -37.036,72.2 -11.45,104.1 25.586,31.91 72.196,37.04 104.102,11.44 31.91,-25.58 37.035,-72.19 11.449,-104.1"
         style="fill:#ffffff;fill-opacity:1;fill-rule:nonzero;stroke:none"
         id="path168" /><path
         d="m 694.391,2353.07 c 1.004,-1.03 -16.907,-20.12 -40.004,-42.65 -3.364,-3.25 -6.621,-6.39 -9.785,-9.44 l -1.817,-1.75 -1.742,1.77 c -18.008,18.4 -30.773,32.62 -29.902,33.49 0.863,0.87 15.086,-11.9 33.48,-29.9 l -3.555,0.02 c 3.129,3.08 6.356,6.26 9.684,9.54 23.094,22.53 42.637,39.95 43.641,38.92"
         style="fill:#f03d5f;fill-opacity:1;fill-rule:nonzero;stroke:none"
         id="path170" /><path
         d="m 1551.08,2363.4 c 0,-1.44 -154.49,-2.6 -345.02,-2.6 -190.6,0 -345.056,1.16 -345.056,2.6 0,1.44 154.456,2.61 345.056,2.61 190.53,0 345.02,-1.17 345.02,-2.61"
         style="fill:#ffffff;fill-opacity:1;fill-rule:nonzero;stroke:none"
         id="path172" /><path
         d="m 1268.04,2296.01 c 0,-1.44 -89.31,-2.61 -199.46,-2.61 -110.189,0 -199.49,1.17 -199.49,2.61 0,1.44 89.301,2.6 199.49,2.6 110.15,0 199.46,-1.16 199.46,-2.6"
         style="fill:#ffffff;fill-opacity:1;fill-rule:nonzero;stroke:none"
         id="path174" /><path
         d="M 1637.4,1778.3 H 486.668 c -17.844,0 -32.305,14.46 -32.305,32.3 v 276.14 c 0,17.85 14.461,32.31 32.305,32.31 H 1637.4 c 17.84,0 32.3,-14.46 32.3,-32.31 V 1810.6 c 0,-17.84 -14.46,-32.3 -32.3,-32.3"
         style="fill:#33535f;fill-opacity:1;fill-rule:nonzero;stroke:none"
         id="path176" /><path
         d="m 710.539,1891.84 c -25.59,-31.9 -72.195,-37.03 -104.101,-11.44 -31.911,25.58 -37.036,72.19 -11.45,104.1 25.586,31.91 72.196,37.03 104.102,11.44 31.91,-25.58 37.035,-72.19 11.449,-104.1"
         style="fill:#ffffff;fill-opacity:1;fill-rule:nonzero;stroke:none"
         id="path178" /><path
         d="m 694.391,1963.31 c 1.004,-1.03 -16.907,-20.12 -40.004,-42.65 -3.364,-3.25 -6.621,-6.39 -9.785,-9.44 l -1.817,-1.76 -1.742,1.78 c -18.008,18.4 -30.773,32.62 -29.902,33.49 0.863,0.87 15.086,-11.9 33.48,-29.91 l -3.555,0.03 c 3.129,3.08 6.356,6.26 9.684,9.54 23.094,22.52 42.637,39.95 43.641,38.92"
         style="fill:#f03d5f;fill-opacity:1;fill-rule:nonzero;stroke:none"
         id="path180" /><path
         d="m 1551.08,1973.64 c 0,-1.44 -154.49,-2.6 -345.02,-2.6 -190.6,0 -345.056,1.16 -345.056,2.6 0,1.44 154.456,2.6 345.056,2.6 190.53,0 345.02,-1.16 345.02,-2.6"
         style="fill:#ffffff;fill-opacity:1;fill-rule:nonzero;stroke:none"
         id="path182" /><path
         d="m 1268.04,1906.25 c 0,-1.44 -89.31,-2.6 -199.46,-2.6 -110.189,0 -199.49,1.16 -199.49,2.6 0,1.44 89.301,2.6 199.49,2.6 110.15,0 199.46,-1.16 199.46,-2.6"
         style="fill:#ffffff;fill-opacity:1;fill-rule:nonzero;stroke:none"
         id="path184" /><path
         d="M 2358.45,828.941 2339.34,2.60156 h -36.46 l 2.32,824.25744 53.25,2.082"
         style="fill:#17282f;fill-opacity:1;fill-rule:nonzero;stroke:none"
         id="path186" /><path
         d="M 2490.09,838.102 2667.29,2.60156 h 40.61 L 2560.39,838.102 h -70.3"
         style="fill:#17282f;fill-opacity:1;fill-rule:nonzero;stroke:none"
         id="path188" /><path
         d="M 2157.91,828.941 1961.82,2.60156 h -40.61 l 177.94,829.71844 58.76,-3.379"
         style="fill:#17282f;fill-opacity:1;fill-rule:nonzero;stroke:none"
         id="path190" /><path
         d="m 2720.18,1737.36 c 0,0 224.67,12.83 202.21,-247.14 -22.47,-259.96 -35.31,-523.118 -118.75,-613.001 -83.46,-89.86 -924.33,-93.059 -994.94,-19.239 -70.61,73.79 134.8,70.59 173.32,70.59 38.51,0 276.01,-22.461 353.04,179.74 77.02,202.19 57.77,641.88 385.12,629.05"
         style="fill:#17282f;fill-opacity:1;fill-rule:nonzero;stroke:none"
         id="path192" /><path
         d="m 2734.6,1737.22 c 0,0 171.75,-35.17 155.68,-214.9 -16.04,-179.74 -60.98,-494.25 -144.41,-574.48 -83.46,-80.25 -410.42,-97.731 -587.34,-86.66 -205.4,12.84 -335.06,51.949 -335.06,51.949 0,0 -37.48,-24.109 -26.12,-39.641 11.35,-15.508 111.5,-77.968 596.99,-67.566 485.49,10.406 451.74,82.047 471.89,160.289 20.16,78.249 62.44,495.419 56.57,587.139 -5.85,91.72 -52.06,167.78 -188.2,183.87"
         style="fill:#33535f;fill-opacity:1;fill-rule:nonzero;stroke:none"
         id="path194" /><path
         d="m 2252.19,2499.47 c 53.42,19.88 119.25,-1.93 150.26,-49.77 21.71,-33.51 26.72,-75.81 48.89,-109.02 15.7,-23.53 38.91,-40.85 58.06,-61.66 19.14,-20.83 34.92,-48.26 30.09,-76.13 -4.54,-26.19 -26.68,-49.31 -22.23,-75.52 4.16,-24.55 30.36,-40.55 35.42,-64.92 5.98,-28.71 -21.7,-55.55 -50.66,-60.05 -28.98,-4.5 -57.82,6.7 -85.08,17.52 -27.25,10.82 -56.33,21.66 -85.17,16.43 -33.58,-6.08 -59.21,-32.37 -88.58,-49.74 -60.86,-36.01 -143.39,-31.09 -199.54,11.89 -22.08,16.89 -41.28,43.16 -35.95,70.44 4.98,25.42 29.49,43.01 36.63,67.9 10.62,37.02 -20.17,74.84 -15.52,113.07 6.26,51.45 69.65,74.95 92.79,121.34 11.1,22.25 12.07,48.32 21.86,71.19 9.79,22.87 35.21,43.28 58.1,33.54"
         style="fill:#17282f;fill-opacity:1;fill-rule:nonzero;stroke:none"
         id="path196" /><path
         d="m 2230.57,2031.64 c 3.38,18.25 -2.53,95.27 -2.53,95.27 0,0 -68.27,8.61 -71.21,78.29 -2.94,69.68 3.99,230.13 3.99,230.13 l 125.65,60.35 109.66,-125.02 2.08,-337.89 -167.64,-1.13"
         style="fill:#f8a58d;fill-opacity:1;fill-rule:nonzero;stroke:none"
         id="path198" /><path
         d="m 2169.74,2312.35 c -0.07,-4.92 3.74,-8.97 8.54,-9.05 4.78,-0.09 8.75,3.83 8.83,8.75 0.08,4.92 -3.73,8.98 -8.52,9.06 -4.79,0.09 -8.76,-3.84 -8.85,-8.76"
         style="fill:#17282f;fill-opacity:1;fill-rule:nonzero;stroke:none"
         id="path200" /><path
         d="m 2164.17,2327.95 c 1.1,-1.18 7.61,4.31 16.96,4.66 9.35,0.49 16.29,-4.39 17.29,-3.12 0.49,0.57 -0.64,2.71 -3.67,4.93 -2.97,2.2 -8.03,4.25 -13.86,3.99 -5.83,-0.27 -10.7,-2.76 -13.48,-5.22 -2.84,-2.49 -3.78,-4.72 -3.24,-5.24"
         style="fill:#17282f;fill-opacity:1;fill-rule:nonzero;stroke:none"
         id="path202" /><path
         d="m 2271.47,2312.35 c -0.09,-4.92 3.74,-8.97 8.54,-9.05 4.78,-0.09 8.74,3.83 8.83,8.75 0.08,4.92 -3.73,8.98 -8.53,9.06 -4.79,0.09 -8.75,-3.84 -8.84,-8.76"
         style="fill:#17282f;fill-opacity:1;fill-rule:nonzero;stroke:none"
         id="path204" /><path
         d="m 2267.77,2326.15 c 1.09,-1.17 7.61,4.32 16.96,4.66 9.35,0.5 16.29,-4.38 17.29,-3.11 0.49,0.56 -0.64,2.71 -3.67,4.92 -2.98,2.2 -8.03,4.26 -13.86,4 -5.83,-0.27 -10.69,-2.77 -13.48,-5.23 -2.83,-2.48 -3.78,-4.72 -3.24,-5.24"
         style="fill:#17282f;fill-opacity:1;fill-rule:nonzero;stroke:none"
         id="path206" /><path
         d="m 2232.64,2245.72 c 0.04,0.57 -5.8,1.42 -15.24,2.32 -2.39,0.17 -4.66,0.59 -5.09,2.32 -0.59,1.82 0.36,4.62 1.48,7.64 2.15,6.29 4.39,12.87 6.75,19.77 9.39,28.13 16.13,51.22 15.08,51.59 -1.05,0.37 -9.51,-22.13 -18.89,-50.26 -2.25,-6.93 -4.41,-13.54 -6.46,-19.87 -0.86,-2.94 -2.36,-6.3 -1.08,-10.08 0.67,-1.89 2.45,-3.21 3.98,-3.59 1.54,-0.44 2.89,-0.41 4.07,-0.44 9.5,-0.16 15.38,0.03 15.4,0.6"
         style="fill:#17282f;fill-opacity:1;fill-rule:nonzero;stroke:none"
         id="path208" /><path
         d="m 2228.04,2126.91 c 0,0 45.67,-1.31 90.4,29.59 0,0 -21.25,-50.76 -89.21,-46.69 l -1.19,17.1"
         style="fill:#f68260;fill-opacity:1;fill-rule:nonzero;stroke:none"
         id="path210" /><path
         d="m 2236.01,2221.15 c 1.08,5.89 5.3,11.11 10.84,13.38 3.84,1.57 8.38,1.72 12.05,-0.22 3.68,-1.95 6.2,-6.16 5.57,-10.27 -0.71,-4.61 -5.1,-7.98 -9.67,-8.97 -4.57,-0.98 -9.31,-0.06 -13.87,0.94 -1.27,0.28 -2.57,0.58 -3.63,1.33 -1.04,0.75 -1.8,2.07 -1.51,3.33"
         style="fill:#f68260;fill-opacity:1;fill-rule:nonzero;stroke:none"
         id="path212" /><path
         d="m 2259.19,2246.09 c 0.65,0.08 1.77,-2.56 1.43,-7.1 -0.3,-4.45 -2.49,-10.81 -7.68,-15.73 -5.22,-4.9 -11.69,-6.71 -16.16,-6.75 -4.54,-0.09 -7.11,1.19 -7,1.84 0.03,1.43 10.95,0.54 19.58,8.7 8.65,8.15 8.4,19.09 9.83,19.04"
         style="fill:#17282f;fill-opacity:1;fill-rule:nonzero;stroke:none"
         id="path214" /><path
         d="m 2155.08,2443.11 c 3.72,-40.42 42.21,-74.49 82.79,-73.26 -6.32,13.88 -12.64,27.75 -18.97,41.63 16.83,-19.56 34.26,-39.62 57.28,-51.27 23.02,-11.66 53.26,-12.95 72.89,3.79 6.39,-17.05 6.27,-35.94 12.12,-53.18 5.85,-17.25 19.63,-88.33 37.64,-85.62 16.53,2.48 28.27,74.17 32.48,90.35 11.66,44.7 -2.94,93.94 -32.66,129.31 -35.27,41.97 -91.32,65.41 -146.01,61.54 -24.24,-1.72 -48.69,-8.8 -67.77,-23.86 -16.77,-13.24 -28.76,-32.41 -33.33,-53.28"
         style="fill:#17282f;fill-opacity:1;fill-rule:nonzero;stroke:none"
         id="path216" /><path
         d="m 2061.49,2129.15 c -0.05,-0.17 -1.67,0.2 -4.73,1.08 -3.05,0.89 -7.52,2.48 -12.86,5.38 -10.71,5.48 -25.33,16.67 -36.38,35.68 -11.16,18.5 -17.06,46.85 -6.43,74.43 5.16,13.6 13.72,26.75 25.52,37.38 11.54,10.83 27,18.52 43.24,21.9 7.87,1.85 15.41,4.12 20.19,9.58 4.86,5.33 7.11,12.75 7.66,20.03 1.2,14.74 -4.58,28.98 -6.21,43.43 -2.01,14.62 1.62,28.98 8.17,40.18 6.46,11.42 16.26,19.52 25.89,24.61 9.66,5.13 18.83,8.44 26.62,11.79 7.82,3.26 14.27,6.6 19.11,10 9.74,6.82 12.61,13.2 13.11,12.82 0.16,-0.09 -0.6,-1.56 -2.22,-4.34 -1.9,-2.55 -4.78,-6.43 -9.69,-10.11 -4.81,-3.77 -11.33,-7.48 -19.13,-11.04 -7.76,-3.63 -16.81,-7.18 -26.01,-12.34 -9.16,-5.12 -18.01,-12.75 -23.93,-23.53 -5.96,-10.61 -9.16,-23.84 -7.16,-37.45 1.57,-13.67 7.67,-27.97 6.54,-44.41 -0.59,-7.99 -2.98,-16.55 -8.92,-23.14 -6,-6.79 -14.95,-9.29 -22.79,-11.14 -31.81,-6.14 -55.76,-30.24 -65.51,-55.92 -10.28,-26.02 -5.17,-52.82 5.17,-70.94 10.21,-18.5 23.98,-29.83 34.16,-35.7 10.25,-6.01 16.78,-7.7 16.59,-8.23"
         style="fill:#17282f;fill-opacity:1;fill-rule:nonzero;stroke:none"
         id="path218" /><path
         d="m 2514.38,2037.53 c -0.23,0.38 5.91,3.97 16.25,11.41 9.9,7.53 25.64,19.15 34.24,39.94 3.92,10.28 5.61,23.03 1.91,35.42 -1.78,6.16 -5.04,12.11 -9.92,16.78 -4.74,4.81 -11.29,8.03 -17.88,11.96 -13.88,7.22 -24.89,22.91 -25.35,40.46 -0.75,18.1 10.54,33.13 14.53,49.23 4.09,16.32 -0.03,33.36 -7.59,47.38 -7.49,14.28 -18.27,25.85 -29.65,35.51 -22.95,19.24 -46.79,33.28 -63.3,49.7 -16.7,16.11 -26.04,33.19 -29.39,45.71 -1.85,6.24 -2.17,11.32 -2.42,14.69 0.02,3.41 0.12,5.18 0.29,5.18 0.59,0.05 0.1,-7.22 4.06,-19.27 3.86,-12 13.36,-28.23 30.01,-43.65 16.41,-15.7 40.2,-29.26 63.85,-48.7 11.71,-9.76 23.13,-21.8 31.06,-36.77 8,-14.7 12.63,-33.09 8.13,-51.04 -4.6,-17.55 -15.28,-31.96 -14.48,-47.79 0.48,-15.74 9.81,-29.63 22.73,-36.53 6.31,-3.87 13.24,-7.3 18.62,-12.81 5.44,-5.34 8.98,-12.07 10.85,-18.84 3.83,-13.64 1.73,-27.12 -2.64,-37.98 -4.58,-10.95 -11.46,-19.24 -18.05,-25.65 -6.65,-6.4 -13.07,-11.06 -18.45,-14.59 -5.39,-3.54 -9.73,-6 -12.71,-7.59 -2.99,-1.58 -4.61,-2.31 -4.7,-2.16"
         style="fill:#17282f;fill-opacity:1;fill-rule:nonzero;stroke:none"
         id="path220" /><path
         d="m 2152.8,2359.74 c 9.93,7.57 16.14,19.19 19.42,31.22 3.3,12.04 3.93,24.63 4.54,37.09 0.17,3.61 -0.36,8.26 -3.84,9.22 -3.37,0.92 -6.19,-2.57 -7.83,-5.65 -12.18,-22.91 -16.58,-49.87 -12.32,-75.46 l 2.23,2.06"
         style="fill:#17282f;fill-opacity:1;fill-rule:nonzero;stroke:none"
         id="path222" /><path
         d="m 1978.3,52.1602 -1.84,89.9218 168.4,4.527 4.09,-131.5192 -10.42,-0.9492 C 2092.13,10.3086 1902.34,-2.05859 1871.02,6.51172 1836.1,16.0898 1978.3,52.1602 1978.3,52.1602"
         style="fill:#f03d5f;fill-opacity:1;fill-rule:nonzero;stroke:none"
         id="path224" /><g
         id="g226"><g
           id="g228"
           clip-path="url(#clipPath232)"><path
             d="m 2088.16,16.6719 h 60.5508 v 47.957 H 2088.16 Z"
             style="fill:#f68aa6;fill-opacity:1;fill-rule:nonzero;stroke:none"
             id="path234" /></g></g><path
         d="m 1987.7,5.19141 c 60.53,2.42968 126.08,6.91019 150.83,8.94919 l 10.42,0.9492 c -40,-4.6093 -104.04,-8.21871 -161.15,-9.89839 h -0.1"
         style="fill:#ffffff;fill-opacity:1;fill-rule:nonzero;stroke:none"
         id="path236" /><path
         d="m 1987.43,5.17969 c 0.09,0.01172 0.18,0.01172 0.27,0.01172 h 0.1 c -0.12,0 -0.25,0 -0.37,-0.01172"
         style="fill:#6c7a7f;fill-opacity:1;fill-rule:nonzero;stroke:none"
         id="path238" /><path
         d="m 1872.45,6.16016 c -3.84,0.53906 -6.21,1.19922 -6.84,1.98047 -0.9,1.12109 -0.72,2.39847 0.27,3.75777 -1.16,-2.19918 0.27,-4.04684 5.14,-5.38668 0.45,-0.12109 0.92,-0.24219 1.43,-0.35156 m 24.71,21.82814 c 6.68,2.4531 11.73,4.0625 11.73,4.0625 v 0 c -4.03,-1.3399 -7.97,-2.6992 -11.73,-4.0625"
         style="fill:#ffffff;fill-opacity:1;fill-rule:nonzero;stroke:none"
         id="path240" /><path
         d="m 1925.44,4.17969 c -24.19,0 -43.29,0.60937 -52.99,1.98047 -0.51,0.10937 -0.98,0.23047 -1.43,0.35156 -4.87,1.33984 -6.3,3.1875 -5.14,5.38668 3.85,5.3008 19.92,11.9219 31.28,16.0899 3.76,1.3633 7.7,2.7226 11.73,4.0625 9.81,-0.1524 15.48,-21.2813 15.48,-21.2813 l 163.79,5.9024 c -0.11,-0.6328 -0.21,-1.2617 -0.3,-1.9024 l 60.85,2.7188 0.24,-2.3985 -10.42,-0.9492 c -24.75,-2.039 -90.3,-6.51951 -150.83,-8.94919 -0.09,0 -0.18,0 -0.27,-0.01172 -22.36,-0.64844 -43.64,-1 -61.99,-1"
         style="fill:#f57797;fill-opacity:1;fill-rule:nonzero;stroke:none"
         id="path242" /><path
         d="m 2087.86,14.7695 c 0.09,0.6407 0.19,1.2696 0.3,1.9024 l 60.42,2.1679 0.13,-1.3515 -60.85,-2.7188"
         style="fill:#f9b4c6;fill-opacity:1;fill-rule:nonzero;stroke:none"
         id="path244" /><path
         d="m 2151.22,19.0195 c 0,-0.0703 -0.99,-0.1992 -2.89,-0.3906 -2.49,-0.2305 -5.22,-0.4609 -8.3,-0.7305 -8.3,-0.5898 -18.51,-1.3086 -30.56,-2.1601 -25.83,-1.6367 -61.54,-3.4375 -101.01,-4.5586 -39.48,-1.1094 -75.24,-1.32814 -101.11,-1.1484 -12.08,0.1601 -22.32,0.3085 -30.65,0.4296 -3.08,0.0899 -5.82,0.1797 -8.32,0.2579 -1.91,0.082 -2.91,0.1601 -2.9,0.2226 0,0.0703 1,0.1367 2.9,0.1875 2.5,0.043 5.24,0.082 8.33,0.1211 8.32,0.0703 18.56,0.1289 30.64,0.2188 25.86,0.1914 61.59,0.6523 101.05,1.75 39.45,1.121 75.15,2.6796 100.98,3.9609 12.07,0.6016 22.29,1.1016 30.6,1.5195 3.09,0.1211 5.83,0.2305 8.33,0.3399 1.9,0.0625 2.9,0.0507 2.91,-0.0196"
         style="fill:#17282f;fill-opacity:1;fill-rule:nonzero;stroke:none"
         id="path246" /><path
         d="m 1924.49,8.14844 c -0.63,-0.09766 -1.3,7.20316 -6.12,14.45316 -4.7,7.3398 -11.1,10.8984 -10.76,11.4297 0.11,0.5195 7.41,-2.461 12.47,-10.3125 5.14,-7.7969 4.92,-15.67974 4.41,-15.57036"
         style="fill:#17282f;fill-opacity:1;fill-rule:nonzero;stroke:none"
         id="path248" /><path
         d="m 1973.48,34.7188 c -0.47,-0.3086 -2.93,2.5195 -5.49,6.3203 -2.56,3.8007 -4.26,7.1406 -3.79,7.4492 0.47,0.332 2.92,-2.5078 5.49,-6.3086 2.56,-3.8008 4.26,-7.1406 3.79,-7.4609"
         style="fill:#17282f;fill-opacity:1;fill-rule:nonzero;stroke:none"
         id="path250" /><path
         d="m 1986.92,42.3086 c -0.37,-0.4297 -3.08,1.2695 -6.05,3.8008 -2.97,2.5195 -5.09,4.9219 -4.72,5.3515 0.37,0.4297 3.07,-1.2695 6.04,-3.8007 2.97,-2.5313 5.09,-4.9219 4.73,-5.3516"
         style="fill:#17282f;fill-opacity:1;fill-rule:nonzero;stroke:none"
         id="path252" /><path
         d="m 1995.1,58.4414 c 0.02,-0.5625 -3.9,-1.1797 -8.76,-1.3594 -4.85,-0.1914 -8.81,0.1094 -8.83,0.6797 -0.02,0.5703 3.9,1.168 8.75,1.3594 4.86,0.1797 8.82,-0.1211 8.84,-0.6797"
         style="fill:#17282f;fill-opacity:1;fill-rule:nonzero;stroke:none"
         id="path254" /><path
         d="m 1997.75,69.7305 c 0.2,-0.5 -4.03,-2.5508 -9.72,-3.1211 -5.7,-0.6094 -10.26,0.539 -10.17,1.0703 0.08,0.5898 4.54,0.3789 9.96,0.9609 5.41,0.5391 9.74,1.6485 9.93,1.0899"
         style="fill:#17282f;fill-opacity:1;fill-rule:nonzero;stroke:none"
         id="path256" /><path
         d="m 1967.36,49.25 c 0.02,-0.2187 -4.12,-0.8516 -10.82,-0.2187 -3.34,0.2968 -7.31,0.9882 -11.59,2.2187 -2.13,0.6992 -4.35,1.1992 -6.67,2.5391 -1.09,0.6797 -2.31,1.6601 -2.77,3.2929 -0.49,1.6094 0.32,3.4493 1.52,4.3594 10.2,5.6484 20.71,0.1172 24.7,-5.1211 2.19,-2.6719 3.23,-5.3086 3.73,-7.1211 0.48,-1.8476 0.48,-2.8984 0.36,-2.9179 -0.38,-0.1524 -0.85,4.2304 -5.18,9.0898 -2.14,2.3789 -5.34,4.668 -9.41,5.7578 -3.85,1.0195 -9.3,1.1797 -12.87,-1.2383 -1.69,-1.3203 -0.96,-3.3203 0.98,-4.4101 1.81,-1.1016 4.13,-1.7305 6.16,-2.4297 4.13,-1.3008 7.96,-2.1094 11.22,-2.5899 6.51,-0.9726 10.64,-0.8711 10.64,-1.2109"
         style="fill:#17282f;fill-opacity:1;fill-rule:nonzero;stroke:none"
         id="path258" /><path
         d="m 1964.57,48.6406 c -0.15,-0.1211 -1.82,2.6094 -1.45,7.4805 0.2,2.3984 0.99,5.25 2.74,7.9883 1.84,2.4492 4.21,5.832 8.85,5.7617 2.52,-0.2422 3.82,-3.0703 3.48,-4.9023 -0.15,-1.9102 -0.96,-3.5586 -1.71,-4.8907 -1.54,-2.7383 -3.29,-4.9883 -4.93,-6.6797 -3.3,-3.4101 -5.95,-4.75 -6.07,-4.5586 -0.2,0.2696 2.1,2.0118 4.99,5.5118 1.44,1.7578 2.99,3.9804 4.35,6.6172 1.42,2.332 2.33,6.4726 -0.4,6.8828 -2.71,0.1875 -5.4,-2.5821 -7,-4.793 -1.64,-2.3906 -2.51,-4.9297 -2.87,-7.1172 -0.7,-4.4219 0.38,-7.2031 0.02,-7.3008"
         style="fill:#17282f;fill-opacity:1;fill-rule:nonzero;stroke:none"
         id="path260" /><path
         d="m 2146.52,65.0117 c -0.03,-0.3828 -4.84,0.3164 -12.43,-0.7812 -7.51,-1.0508 -17.92,-4.4414 -26.83,-11.9414 -8.91,-7.5274 -14.01,-17.211 -16.31,-24.4375 -2.37,-7.293 -2.48,-12.1407 -2.86,-12.1133 -0.13,0.0117 -0.22,1.2226 -0.1,3.4023 0.11,2.1797 0.55,5.3399 1.58,9.1289 2,7.5391 7.08,17.7305 16.37,25.5821 9.3,7.8281 20.21,11.1093 27.97,11.8086 3.91,0.3711 7.1,0.2695 9.27,0.0078 2.17,-0.2383 3.35,-0.5469 3.34,-0.6563"
         style="fill:#17282f;fill-opacity:1;fill-rule:nonzero;stroke:none"
         id="path262" /><path
         d="m 2127.14,134.602 c 0.56,0.027 1.64,-15.442 2.4,-34.543 0.78,-19.1176 0.94,-34.6098 0.37,-34.6371 -0.56,-0.0235 -1.64,15.4492 -2.41,34.5469 -0.76,19.1012 -0.93,34.6132 -0.36,34.6332"
         style="fill:#17282f;fill-opacity:1;fill-rule:nonzero;stroke:none"
         id="path264" /><path
         d="m 2066.21,30.6016 c 0.09,-0.5313 -10.83,-2.6211 -24.51,-3.1133 -13.68,-0.5274 -24.73,0.7617 -24.68,1.3008 0.04,0.5898 11.05,0.2226 24.6,0.7422 13.55,0.4804 24.52,1.6679 24.59,1.0703"
         style="fill:#17282f;fill-opacity:1;fill-rule:nonzero;stroke:none"
         id="path266" /><path
         d="m 2099.22,31.5586 c 0.42,-0.3984 -0.84,-2.3477 -1.89,-4.8984 -1.09,-2.5508 -1.6,-4.8204 -2.19,-4.7891 -0.54,-0.0195 -0.94,2.6406 0.31,5.5781 1.22,2.9414 3.4,4.5117 3.77,4.1094"
         style="fill:#17282f;fill-opacity:1;fill-rule:nonzero;stroke:none"
         id="path268" /><path
         d="m 2111.23,47.3789 c 0.41,-0.3789 -0.63,-2.168 -2.32,-3.9805 -1.7,-1.8086 -3.4,-2.9687 -3.81,-2.5781 -0.41,0.3789 0.63,2.1602 2.32,3.9805 1.69,1.8086 3.4,2.9687 3.81,2.5781"
         style="fill:#17282f;fill-opacity:1;fill-rule:nonzero;stroke:none"
         id="path270" /><path
         d="m 2128.83,54.9492 c -0.1,-0.5781 -2.34,-0.6211 -4.78,-1.5586 -2.48,-0.8789 -4.2,-2.3125 -4.65,-1.9414 -0.47,0.3008 0.89,2.7422 3.94,3.8516 3.03,1.1406 5.65,0.1797 5.49,-0.3516"
         style="fill:#17282f;fill-opacity:1;fill-rule:nonzero;stroke:none"
         id="path272" /><path
         d="m 2141.41,58.6289 c 0.22,-0.5195 -0.72,-1.4101 -2.11,-1.9883 -1.38,-0.582 -2.68,-0.6289 -2.9,-0.1093 -0.21,0.5195 0.73,1.4179 2.11,1.9882 1.39,0.5821 2.68,0.6289 2.9,0.1094"
         style="fill:#17282f;fill-opacity:1;fill-rule:nonzero;stroke:none"
         id="path274" /><path
         d="m 1571.62,533.211 39.04,81.019 152.22,-72.16 -55.86,-119.129 -9.72,3.86 c -43.11,17.578 -217.96,92.429 -242.01,114.238 -26.81,24.352 116.33,-7.828 116.33,-7.828"
         style="fill:#f03d5f;fill-opacity:1;fill-rule:nonzero;stroke:none"
         id="path276" /><path
         d="m 1707.9,425.18 v 0 l 0.49,1.269 -54.86,25.403 c 8.21,10.878 20.36,18.738 33.68,21.687 4.36,0.973 8.78,1.461 13.18,1.461 9.64,0 19.15,-2.359 27.64,-7.262 L 1707.9,425.18"
         style="fill:#f68aa6;fill-opacity:1;fill-rule:nonzero;stroke:none"
         id="path278" /><path
         d="m 1707.02,422.941 c -37.88,14.028 -96.93,39.93 -148.76,64.348 55.21,-25.289 115.97,-51.078 139.04,-60.488 l 9.72,-3.86 m -250.56,117.09 c -3.22,2.25 -5.06,3.918 -5.26,4.91 -0.3,1.411 0.44,2.457 1.93,3.219 -2.01,-1.441 -1.57,-3.73 2.16,-7.121 0.36,-0.32 0.75,-0.66 1.17,-1.008 m 43.94,6.68 c -3.92,0.59 -7.78,1.117 -11.5,1.59 5.95,-0.723 10.5,-1.43 11.5,-1.59"
         style="fill:#ffffff;fill-opacity:1;fill-rule:nonzero;stroke:none"
         id="path280" /><path
         d="m 1707.02,422.941 -9.72,3.86 c -23.07,9.41 -83.83,35.199 -139.04,60.488 -46.76,22.039 -87.64,42.891 -101.8,52.742 -0.42,0.348 -0.81,0.688 -1.17,1.008 -3.73,3.391 -4.17,5.68 -2.16,7.121 2.55,1.309 7.31,1.789 12.86,1.789 7.34,0 16.06,-0.828 22.91,-1.648 3.72,-0.473 7.58,-1 11.5,-1.59 0.14,-0.02 0.21,-0.031 0.21,-0.031 8.68,-4.571 4.18,-25.981 4.18,-25.981 l 148.74,-68.847 c -0.38,-0.524 -0.76,-1.032 -1.13,-1.563 l 55.5,-25.109 -0.88,-2.239"
         style="fill:#f57797;fill-opacity:1;fill-rule:nonzero;stroke:none"
         id="path282" /><path
         d="m 1707.9,425.18 -55.5,25.109 c 0.37,0.531 0.75,1.039 1.13,1.563 l 54.86,-25.403 -0.49,-1.269"
         style="fill:#f9b4c6;fill-opacity:1;fill-rule:nonzero;stroke:none"
         id="path284" /><path
         d="m 1710.83,425.422 c -0.03,-0.07 -0.98,0.258 -2.76,0.949 -2.32,0.93 -4.86,1.949 -7.73,3.098 -7.67,3.242 -17.1,7.222 -28.24,11.91 -23.77,10.223 -56.42,24.781 -92.13,41.633 -35.71,16.879 -67.7,32.859 -90.69,44.726 -10.7,5.621 -19.77,10.371 -27.14,14.25 -2.71,1.481 -5.11,2.793 -7.31,3.992 -1.66,0.938 -2.51,1.469 -2.48,1.532 0.03,0.058 0.95,-0.352 2.67,-1.16 2.25,-1.102 4.71,-2.301 7.49,-3.661 7.45,-3.711 16.61,-8.281 27.41,-13.66 23.16,-11.531 55.23,-27.301 90.92,-44.172 35.69,-16.847 68.23,-31.597 91.84,-42.16 11.03,-4.929 20.37,-9.097 27.98,-12.5 2.81,-1.277 5.3,-2.41 7.58,-3.461 1.72,-0.808 2.61,-1.258 2.59,-1.316"
         style="fill:#17282f;fill-opacity:1;fill-rule:nonzero;stroke:none"
         id="path286" /><path
         d="m 1503.71,518.309 c -0.6,0.191 2.1,7.011 1.08,15.66 -0.86,8.66 -4.96,14.742 -4.42,15.062 0.33,0.399 5.5,-5.562 6.45,-14.84 1.06,-9.281 -2.7,-16.211 -3.11,-15.882"
         style="fill:#17282f;fill-opacity:1;fill-rule:nonzero;stroke:none"
         id="path288" /><path
         d="m 1559.43,519.84 c -0.57,-0.07 -1.47,3.558 -2.04,8.121 -0.57,4.551 -0.57,8.289 -0.01,8.359 0.56,0.071 1.47,-3.558 2.04,-8.109 0.56,-4.551 0.57,-8.301 0.01,-8.371"
         style="fill:#17282f;fill-opacity:1;fill-rule:nonzero;stroke:none"
         id="path290" /><path
         d="m 1574.84,520.52 c -0.52,-0.211 -2.17,2.531 -3.67,6.128 -1.51,3.59 -2.31,6.692 -1.79,6.911 0.52,0.222 2.17,-2.528 3.67,-6.118 1.51,-3.613 2.31,-6.703 1.79,-6.921"
         style="fill:#17282f;fill-opacity:1;fill-rule:nonzero;stroke:none"
         id="path292" /><path
         d="m 1589.44,531.211 c -0.24,-0.52 -4.01,0.707 -8.43,2.738 -4.42,2.031 -7.8,4.09 -7.57,4.61 0.24,0.511 4.01,-0.719 8.43,-2.75 4.41,-2.028 7.8,-4.09 7.57,-4.598"
         style="fill:#17282f;fill-opacity:1;fill-rule:nonzero;stroke:none"
         id="path294" /><path
         d="m 1596.91,540.07 c -0.05,-0.531 -4.75,-0.441 -10.09,1.629 -5.35,2.039 -8.9,5.121 -8.58,5.539 0.34,0.492 4.23,-1.707 9.32,-3.636 5.06,-1.973 9.43,-2.942 9.35,-3.532"
         style="fill:#17282f;fill-opacity:1;fill-rule:nonzero;stroke:none"
         id="path296" /><path
         d="m 1560.55,535.57 c -0.09,-0.211 -4.06,1.11 -9.76,4.692 -2.84,1.789 -6.07,4.187 -9.33,7.226 -1.58,1.582 -3.34,3.032 -4.8,5.282 -0.66,1.101 -1.31,2.519 -0.98,4.179 0.29,1.66 1.85,2.942 3.33,3.211 11.65,0.418 18.52,-9.269 19.71,-15.75 0.74,-3.371 0.48,-6.191 0.1,-8.039 -0.4,-1.859 -0.88,-2.801 -1,-2.762 -0.4,0.039 1.16,4.161 -0.5,10.461 -0.83,3.078 -2.65,6.571 -5.79,9.379 -2.97,2.66 -7.76,5.27 -12.04,4.731 -2.09,-0.418 -2.36,-2.532 -1.12,-4.379 1.12,-1.801 2.91,-3.422 4.39,-4.961 3.1,-3.02 6.16,-5.469 8.84,-7.379 5.37,-3.82 9.09,-5.59 8.95,-5.891"
         style="fill:#17282f;fill-opacity:1;fill-rule:nonzero;stroke:none"
         id="path298" /><path
         d="m 1557.78,536.289 c -0.19,-0.039 -0.45,3.129 2.09,7.32 1.26,2.051 3.27,4.243 6.06,5.891 2.75,1.352 6.39,3.289 10.5,1.129 2.13,-1.367 2.01,-4.469 0.88,-5.949 -0.99,-1.629 -2.46,-2.731 -3.73,-3.578 -2.62,-1.762 -5.19,-2.961 -7.43,-3.743 -4.48,-1.539 -7.45,-1.539 -7.47,-1.308 -0.06,0.32 2.78,0.828 6.94,2.66 2.08,0.918 4.47,2.187 6.88,3.93 2.32,1.429 5,4.711 2.76,6.32 -2.34,1.391 -5.99,0.141 -8.42,-1.102 -2.54,-1.398 -4.47,-3.269 -5.77,-5.058 -2.63,-3.621 -2.93,-6.602 -3.29,-6.512"
         style="fill:#17282f;fill-opacity:1;fill-rule:nonzero;stroke:none"
         id="path300" /><path
         d="m 1727.43,468.551 c -0.19,-0.332 -4.16,2.469 -11.43,4.918 -7.17,2.472 -17.97,4.16 -29.33,1.5 -11.35,-2.68 -20.27,-9.008 -25.59,-14.418 -5.41,-5.422 -7.72,-9.699 -8.04,-9.5 -0.11,0.07 0.36,1.179 1.45,3.078 1.09,1.891 2.91,4.519 5.55,7.43 5.19,5.812 14.33,12.613 26.17,15.402 11.83,2.769 23.05,0.758 30.28,-2.133 3.66,-1.43 6.46,-2.969 8.28,-4.18 1.82,-1.199 2.74,-2 2.66,-2.097"
         style="fill:#17282f;fill-opacity:1;fill-rule:nonzero;stroke:none"
         id="path302" /><path
         d="m 1741.64,539.379 c 0.52,-0.231 -5.52,-14.52 -13.48,-31.891 -7.96,-17.398 -14.83,-31.289 -15.34,-31.058 -0.51,0.242 5.53,14.511 13.49,31.91 7.95,17.371 14.82,31.281 15.33,31.039"
         style="fill:#17282f;fill-opacity:1;fill-rule:nonzero;stroke:none"
         id="path304" /><path
         d="m 1640.26,474.211 c -0.16,-0.512 -10.85,2.551 -23.27,8.309 -12.44,5.718 -21.7,11.871 -21.43,12.32 0.31,0.512 9.97,-4.801 22.28,-10.469 12.31,-5.699 22.62,-9.609 22.42,-10.16"
         style="fill:#17282f;fill-opacity:1;fill-rule:nonzero;stroke:none"
         id="path306" /><path
         d="m 1670.12,460.121 c 0.2,-0.539 -1.81,-1.723 -3.9,-3.519 -2.12,-1.774 -3.61,-3.563 -4.12,-3.27 -0.49,0.227 0.36,2.77 2.8,4.828 2.43,2.07 5.07,2.488 5.22,1.961"
         style="fill:#17282f;fill-opacity:1;fill-rule:nonzero;stroke:none"
         id="path308" /><path
         d="m 1688,468.801 c 0.19,-0.531 -1.54,-1.653 -3.88,-2.5 -2.33,-0.852 -4.37,-1.121 -4.57,-0.582 -0.19,0.531 1.55,1.652 3.88,2.5 2.32,0.851 4.38,1.109 4.57,0.582"
         style="fill:#17282f;fill-opacity:1;fill-rule:nonzero;stroke:none"
         id="path310" /><path
         d="m 1707.12,467.57 c -0.35,-0.449 -2.37,0.52 -4.98,0.789 -2.6,0.332 -4.78,-0.16 -5.02,0.379 -0.28,0.473 2.03,2.032 5.26,1.653 3.22,-0.36 5.11,-2.411 4.74,-2.821"
         style="fill:#17282f;fill-opacity:1;fill-rule:nonzero;stroke:none"
         id="path312" /><path
         d="m 1720,465.172 c -0.04,-0.551 -1.29,-0.934 -2.78,-0.82 -1.49,0.109 -2.68,0.66 -2.63,1.207 0.04,0.57 1.28,0.941 2.78,0.82 1.49,-0.09 2.67,-0.641 2.63,-1.207"
         style="fill:#17282f;fill-opacity:1;fill-rule:nonzero;stroke:none"
         id="path314" /><path
         d="m 2682.16,1710.1 -35.81,179.6 c -26.39,147.01 -232.47,157.12 -232.47,157.12 l -161.72,2.63 c 0,0 -119.9,16.11 -193.9,-67.31 -76.59,-86.34 -170.66,-188.37 -170.66,-188.37 l 71.87,-180.74 170.14,140.41 c 0,0 -22.82,-37.08 -22.82,-81.68 0,-47.88 49.96,-69.96 49.96,-69.96 l 15.31,-145.74 -50.78,-235.29 528.12,21.17 c -10.31,85.31 -37.54,158.36 -77.86,221.92 l 9.81,246.24 h 100.81"
         style="fill:#f03d5f;fill-opacity:1;fill-rule:nonzero;stroke:none"
         id="path316" /><path
         d="m 2455.46,1911.42 c 0.36,0.06 1.32,-4.04 2.76,-11.48 1.67,-8.52 3.74,-19.05 6.18,-31.51 5.37,-27.77 12.38,-63.98 20.12,-104.01 7.71,-40.66 14.37,-77.55 18.63,-104.36 2.13,-13.4 3.66,-24.28 4.55,-31.82 0.83,-7.56 1.13,-11.76 0.76,-11.81 -0.35,-0.05 -1.31,4.06 -2.76,11.49 -1.67,8.51 -3.73,19.04 -6.17,31.5 -5.37,27.77 -12.38,63.98 -20.13,104.03 -7.7,40.66 -14.36,77.53 -18.62,104.34 -2.13,13.41 -3.66,24.29 -4.56,31.84 -0.83,7.55 -1.11,11.74 -0.76,11.79"
         style="fill:#17282f;fill-opacity:1;fill-rule:nonzero;stroke:none"
         id="path318" /><path
         d="m 2684.79,1719.52 c 0.01,-1.44 -43.68,-2.76 -97.56,-2.95 -53.89,-0.19 -97.57,0.82 -97.57,2.26 -0.01,1.44 43.66,2.76 97.55,2.95 53.89,0.19 97.58,-0.82 97.58,-2.26"
         style="fill:#17282f;fill-opacity:1;fill-rule:nonzero;stroke:none"
         id="path320" /><path
         d="m 2704.95,1556.79 c -10.44,86.27 -24.32,159.82 -24.32,159.82 h -186.98 c 0,0 23.22,-109.45 18.03,-134.84 -4.52,-22.1 -366.88,-36.75 -461.31,-38.23 -2.56,1.94 -5.67,1.5 -8.98,1.06 -3.92,-0.51 -8.13,-1.03 -12.07,2.4 -6.43,5.59 -11.83,12.33 -16.06,19.81 -5.14,9.07 -11.49,21.41 -12.93,29.26 -1.77,9.72 -14.13,12.2 -17.92,4.11 -3.77,-8.09 0.48,-35.01 18.42,-61.01 17.95,-26.01 -29.09,-12.49 -46.32,-7.88 -17.22,4.6 -71.16,16.29 -76.73,11.98 -8.16,-6.32 -3.05,-16.47 14.26,-20.67 17.52,-4.23 68.35,-20.5 65.55,-29.71 -2.74,-9.08 -90.13,15.6 -90.13,15.6 0,0 -17.85,8.38 -21.42,-2.16 -6.44,-19 88.32,-38.23 97.38,-39.83 6.3,-1.11 3.61,-11.23 -3.09,-9.68 -6.9,1.62 -86.6,26.71 -93.34,7.42 -5.18,-14.78 77.8,-16.55 91.54,-31.18 6.89,-7.34 -8.96,-5.32 -27.01,-3.3 -17.91,2 -38,4 -40.18,-3.14 -1.63,-5.34 30.21,-7.81 75.97,-14.24 42.81,-6.03 122.41,-5.48 141.47,-5.04 106.15,-5.81 481.34,-13.57 561.42,-7.91 93.38,6.6 58.34,127.73 54.75,157.36"
         style="fill:#f8a58d;fill-opacity:1;fill-rule:nonzero;stroke:none"
         id="path322" /><path
         d="m 2110.74,1705.02 c -0.67,0.24 1.95,9.43 6.35,24.26 2.23,7.42 4.94,16.23 8.33,25.93 1.7,4.86 3.57,9.92 5.72,15.12 1.18,2.81 2.66,5.2 3.4,7.54 0.76,2.35 1.04,5.03 0.97,7.75 -0.16,5.47 -1.54,11.09 -2.52,16.58 -1,5.41 -1.98,10.68 -2.93,15.78 -1.67,9.59 -3.24,18.54 -4.67,26.77 -2.51,15.27 -3.7,24.78 -3,24.91 0.71,0.14 3.18,-9.12 6.61,-24.2 1.77,-8.17 3.7,-17.05 5.77,-26.56 1.04,-5.08 2.12,-10.32 3.23,-15.72 1.02,-5.44 2.51,-11.07 2.71,-17.43 0.08,-3.17 -0.23,-6.38 -1.24,-9.5 -1.07,-3.15 -2.66,-5.59 -3.63,-7.9 -2.16,-5.06 -4.11,-10.02 -5.92,-14.78 -3.34,-9.12 -6.47,-17.63 -9.34,-25.45 -5.3,-14.54 -9.16,-23.36 -9.84,-23.1"
         style="fill:#17282f;fill-opacity:1;fill-rule:nonzero;stroke:none"
         id="path324" /><path
         d="m 2328.67,2387.1 c 14.49,-18.57 29.8,-39.87 26.92,-63.24 -2.51,-20.43 -18.81,-38.57 -16.07,-58.97 3.15,-23.5 30.44,-38.83 31.8,-62.52 1.12,-19.64 -15.79,-34.81 -27.75,-50.44 -17.21,-22.48 -25.8,-51.73 -21.82,-79.76 3.97,-28.01 20.95,-54.25 45.71,-67.96 24.75,-13.72 56.86,-13.94 81.02,0.8 22.38,13.65 36.21,37.96 44.78,62.73 11.14,32.19 14.21,70.2 -4.96,98.36 -7.77,11.4 -19.09,21.25 -21.6,34.8 -3.19,17.23 9.02,33.47 10.95,50.87 2.59,23.3 -13.49,44.59 -31.35,59.77 -17.86,15.18 -38.78,27.56 -52.04,46.89"
         style="fill:#17282f;fill-opacity:1;fill-rule:nonzero;stroke:none"
         id="path326" /><path
         d="m 2473.99,1569.92 c -1.93,100.3 -5.82,192.54 -12.37,292.62 4.27,-26.27 10.57,-61.02 17.78,-99.09 7.75,-40.05 14.76,-76.26 20.13,-104.03 2.44,-12.46 4.5,-22.99 6.17,-31.5 1.44,-7.39 2.4,-11.49 2.76,-11.49 v 0 c 0.37,0.05 0.07,4.25 -0.76,11.81 -0.89,7.54 -2.42,18.42 -4.55,31.82 -2.35,14.79 -5.42,32.63 -9.01,52.49 5.69,-27.49 10.57,-53.12 13.83,-74.96 0.68,-4.69 1.32,-9.32 1.89,-13.81 2.21,-17.73 3.01,-32.18 1.82,-42.01 v 0 0 c -3.78,-2.96 -8.33,-5.21 -13.42,-6.95 -6.22,-1.69 -14.42,-3.32 -24.27,-4.9"
         style="fill:#ba2c42;fill-opacity:1;fill-rule:nonzero;stroke:none"
         id="path328" /><path
         d="m 2508.46,1616.43 c -0.36,0 -1.32,4.1 -2.76,11.49 -1.67,8.51 -3.73,19.04 -6.17,31.5 -5.37,27.77 -12.38,63.98 -20.13,104.03 -7.21,38.07 -13.51,72.82 -17.78,99.09 0,0.07 -0.01,0.13 -0.01,0.2 9.84,-46.53 21.46,-97.21 31.09,-143.25 -1.99,-0.21 -3.05,-0.43 -3.04,-0.66 0,-0.23 1.15,-0.45 3.32,-0.66 0.39,-1.88 0.78,-3.76 1.16,-5.62 3.59,-19.86 6.66,-37.7 9.01,-52.49 2.13,-13.4 3.66,-24.28 4.55,-31.82 0.83,-7.56 1.13,-11.76 0.76,-11.81 v 0"
         style="fill:#0f191d;fill-opacity:1;fill-rule:nonzero;stroke:none"
         id="path330" /><path
         d="m 2492.98,1718.17 c -2.17,0.21 -3.32,0.43 -3.32,0.66 -0.01,0.23 1.05,0.45 3.04,0.66 0.09,-0.44 0.18,-0.88 0.28,-1.32"
         style="fill:#0f191d;fill-opacity:1;fill-rule:nonzero;stroke:none"
         id="path332" /><path
         d="m 2473.99,1569.92 v 0 c 9.85,1.58 18.05,3.21 24.27,4.9 -7.2,-2.46 -15.49,-3.91 -24.27,-4.9 m 37.69,11.85 v 0 0 0 0 m -1.82,42.01 c -0.57,4.49 -1.21,9.12 -1.89,13.81 0.71,-4.79 1.34,-9.4 1.89,-13.81"
         style="fill:#ba7562;fill-opacity:1;fill-rule:nonzero;stroke:none"
         id="path334" /><path
         d="m 2217.9,1908.79 c -1.39,0.17 -1.21,10.54 2.28,22.73 3.46,12.2 8.78,21.11 10.05,20.52 1.34,-0.61 -1.7,-10.16 -5.04,-21.95 -3.38,-11.77 -5.83,-21.5 -7.29,-21.3"
         style="fill:#fafaf9;fill-opacity:1;fill-rule:nonzero;stroke:none"
         id="path336" /><path
         d="m 2111.54,1909.09 c -0.79,-1.17 -7.89,2.31 -14.86,8.93 -7,6.6 -10.86,13.5 -9.73,14.35 1.15,0.9 6.64,-4.28 13.31,-10.57 6.64,-6.32 12.12,-11.51 11.28,-12.71"
         style="fill:#fafaf9;fill-opacity:1;fill-rule:nonzero;stroke:none"
         id="path338" /><path
         d="m 2010.17,1826.18 c -0.4,-0.05 -0.89,0.9 -1.41,2.7 l 2.27,0.18 c 1.11,-4.29 1.93,-13.88 0.01,-24.73 -2.56,-15.27 -9.24,-26.13 -10.43,-25.47 -1.37,0.64 2.9,11.91 5.3,26.36 1.83,10.3 2.21,19.39 2.84,23.71 l 2.28,0.18 c -0.16,-1.88 -0.45,-2.89 -0.86,-2.93"
         style="fill:#fafaf9;fill-opacity:1;fill-rule:nonzero;stroke:none"
         id="path340" /><path
         d="m 2005.71,1722.37 c -0.52,-1.34 -10.34,1.23 -21.92,5.73 -11.59,4.51 -20.55,9.25 -20.03,10.6 0.52,1.34 10.33,-1.23 21.92,-5.74 11.58,-4.51 20.55,-9.25 20.03,-10.59"
         style="fill:#fafaf9;fill-opacity:1;fill-rule:nonzero;stroke:none"
         id="path342" /><path
         d="m 2091.28,1779.84 c -1.39,0.22 -1.12,9.03 2.09,19.31 3.19,10.28 7.97,17.69 9.24,17.09 1.32,-0.63 -1.21,-8.74 -4.26,-18.64 -3.1,-9.89 -5.63,-18 -7.07,-17.76"
         style="fill:#fafaf9;fill-opacity:1;fill-rule:nonzero;stroke:none"
         id="path344" /><path
         d="m 2181.6,2007.46 c 0.07,-1.43 -7.48,-2.96 -16.86,-3.41 -9.39,-0.44 -17.04,0.36 -17.11,1.79 -0.07,1.44 7.48,2.97 16.86,3.41 9.37,0.45 17.04,-0.35 17.11,-1.79"
         style="fill:#fafaf9;fill-opacity:1;fill-rule:nonzero;stroke:none"
         id="path346" /><path
         d="m 2200.03,1812.18 c -0.88,-1.05 -9.05,5 -14.44,15.99 -5.46,10.96 -5.31,21.11 -3.94,21.17 1.5,0.2 3.59,-8.86 8.61,-18.86 4.9,-10.06 10.83,-17.22 9.77,-18.3"
         style="fill:#fafaf9;fill-opacity:1;fill-rule:nonzero;stroke:none"
         id="path348" /><path
         d="m 2377.65,1854.01 c 1.01,-1 -5.35,-8.99 -14.85,-17.13 -9.48,-8.15 -18.34,-13.23 -19.18,-12.09 -0.87,1.17 6.48,8.03 15.79,16.05 9.33,7.99 17.22,14.21 18.24,13.17"
         style="fill:#fafaf9;fill-opacity:1;fill-rule:nonzero;stroke:none"
         id="path350" /><path
         d="m 2289.79,1881.63 c 0.86,-1.15 -4.69,-6.72 -12.4,-12.43 -7.71,-5.72 -14.66,-9.42 -15.51,-8.26 -0.86,1.16 4.7,6.72 12.4,12.44 7.71,5.71 14.65,9.41 15.51,8.25"
         style="fill:#fafaf9;fill-opacity:1;fill-rule:nonzero;stroke:none"
         id="path352" /><path
         d="m 2332.87,1953.47 c -0.62,-1.24 -10.97,2.93 -21.27,11.81 -10.34,8.83 -16.03,18.43 -14.9,19.23 1.19,0.9 8.43,-6.87 18.3,-15.28 9.79,-8.46 18.58,-14.45 17.87,-15.76"
         style="fill:#fafaf9;fill-opacity:1;fill-rule:nonzero;stroke:none"
         id="path354" /><path
         d="m 2434,1981.49 c 0.87,-1.15 -4.82,-6.93 -12.7,-12.9 -7.89,-5.98 -14.98,-9.89 -15.85,-8.74 -0.87,1.14 4.81,6.91 12.7,12.89 7.88,5.98 14.98,9.89 15.85,8.75"
         style="fill:#fafaf9;fill-opacity:1;fill-rule:nonzero;stroke:none"
         id="path356" /><path
         d="m 2518.44,1941.43 c -1.38,0.52 0.92,9.84 3.2,21.33 2.33,11.48 3.79,20.98 5.26,20.92 1.4,-0.02 2.27,-9.98 -0.15,-21.94 -2.38,-11.97 -7.02,-20.83 -8.31,-20.31"
         style="fill:#fafaf9;fill-opacity:1;fill-rule:nonzero;stroke:none"
         id="path358" /><path
         d="m 2533.34,1845.16 c -0.98,-1.06 -10.06,5.68 -20.29,15.04 -10.23,9.37 -17.73,17.82 -16.76,18.89 0.97,1.05 10.06,-5.68 20.28,-15.05 10.22,-9.37 17.73,-17.82 16.77,-18.88"
         style="fill:#fafaf9;fill-opacity:1;fill-rule:nonzero;stroke:none"
         id="path360" /><path
         d="m 2601.61,1885.64 c -1.32,0.57 1.28,9.65 5.81,20.28 4.53,10.64 9.28,18.81 10.6,18.25 1.32,-0.57 -1.27,-9.65 -5.81,-20.29 -4.53,-10.63 -9.27,-18.81 -10.6,-18.24"
         style="fill:#fafaf9;fill-opacity:1;fill-rule:nonzero;stroke:none"
         id="path362" /><path
         d="m 2605.19,1769.98 c -1.26,0.69 3.11,11.08 9.75,23.21 6.65,12.14 13.07,21.42 14.33,20.72 1.25,-0.69 -3.11,-11.08 -9.76,-23.22 -6.65,-12.13 -13.06,-21.41 -14.32,-20.71"
         style="fill:#fafaf9;fill-opacity:1;fill-rule:nonzero;stroke:none"
         id="path364" /><path
         d="m 2537.81,1752.24 c -1.15,-0.87 -8.03,6.33 -15.36,16.08 -7.34,9.74 -12.35,18.35 -11.2,19.21 1.15,0.87 8.03,-6.33 15.36,-16.08 7.33,-9.74 12.34,-18.35 11.2,-19.21"
         style="fill:#fafaf9;fill-opacity:1;fill-rule:nonzero;stroke:none"
         id="path366" /><path
         d="m 2410.63,1702.78 c -1.26,0.59 3.91,14.02 13.71,28.71 9.76,14.74 20.15,24.7 21.19,23.77 1.11,-0.98 -7.32,-12.26 -16.85,-26.65 -9.58,-14.36 -16.72,-26.48 -18.05,-25.83"
         style="fill:#fafaf9;fill-opacity:1;fill-rule:nonzero;stroke:none"
         id="path368" /><path
         d="m 2319.2,1711.97 c -1.3,-0.63 -7.62,9.72 -14.11,23.1 -6.51,13.38 -10.73,24.74 -9.43,25.37 1.29,0.63 7.61,-9.71 14.1,-23.1 6.51,-13.38 10.73,-24.74 9.44,-25.37"
         style="fill:#fafaf9;fill-opacity:1;fill-rule:nonzero;stroke:none"
         id="path370" /><path
         d="m 2204.11,1738.78 c 0.95,-1.08 -8.44,-10.83 -20.95,-21.78 -12.52,-10.95 -23.43,-18.95 -24.38,-17.86 -0.95,1.07 8.43,10.83 20.95,21.77 12.51,10.95 23.43,18.95 24.38,17.87"
         style="fill:#fafaf9;fill-opacity:1;fill-rule:nonzero;stroke:none"
         id="path372" /><path
         d="m 2247.83,1613.71 c -1.2,-0.89 -9.45,8.44 -20.22,19.24 -10.72,10.85 -19.99,19.18 -19.09,20.37 0.81,1.12 11.75,-5.54 22.79,-16.7 11.07,-11.12 17.65,-22.11 16.52,-22.91"
         style="fill:#fafaf9;fill-opacity:1;fill-rule:nonzero;stroke:none"
         id="path374" /><path
         d="m 2328.41,1609.94 c -1.32,0.39 1.37,12.43 8.94,25.45 7.51,13.06 16.59,21.4 17.6,20.46 1.12,-0.99 -5.89,-10.53 -13.09,-23.07 -7.27,-12.49 -12.04,-23.33 -13.45,-22.84"
         style="fill:#fafaf9;fill-opacity:1;fill-rule:nonzero;stroke:none"
         id="path376" /><path
         d="m 2441.35,1597.19 c -0.98,-1.05 -12.07,6.7 -24.77,17.31 -12.7,10.6 -22.29,20.15 -21.43,21.3 0.86,1.15 11.95,-6.59 24.77,-17.31 12.82,-10.71 22.41,-20.25 21.43,-21.3"
         style="fill:#fafaf9;fill-opacity:1;fill-rule:nonzero;stroke:none"
         id="path378" /><path
         d="m 2431.45,1894.55 c -0.61,-1.25 -10.63,2.51 -21.15,10.28 -10.55,7.75 -17.1,16.21 -16.07,17.17 1.05,1.03 9.01,-5.52 19.17,-12.98 10.11,-7.49 18.73,-13.15 18.05,-14.47"
         style="fill:#fafaf9;fill-opacity:1;fill-rule:nonzero;stroke:none"
         id="path380" /><path
         d="m 2268.04,1382.08 c 0.56,-1.4 -7.56,-5.78 -16.55,-12.43 -9.05,-6.6 -15.65,-13.04 -16.81,-12.09 -1.11,0.82 4.06,9.21 13.73,16.27 9.62,7.12 19.18,9.55 19.63,8.25"
         style="fill:#fafaf9;fill-opacity:1;fill-rule:nonzero;stroke:none"
         id="path382" /><path
         d="m 2388.99,1332.6 c -1.35,-0.49 -6.13,9.12 -10.68,21.46 -4.55,12.35 -7.15,22.76 -5.8,23.26 1.35,0.5 6.13,-9.11 10.68,-21.46 4.55,-12.35 7.15,-22.76 5.8,-23.26"
         style="fill:#fafaf9;fill-opacity:1;fill-rule:nonzero;stroke:none"
         id="path384" /><path
         d="m 2511.05,1375.82 c 1.04,-1 -5.18,-9.19 -13.9,-18.3 -8.71,-9.11 -16.62,-15.69 -17.66,-14.7 -1.05,1 5.19,9.19 13.9,18.3 8.71,9.11 16.62,15.69 17.66,14.7"
         style="fill:#fafaf9;fill-opacity:1;fill-rule:nonzero;stroke:none"
         id="path386" /><path
         d="m 2601.28,1310.05 c -1.01,-1.15 -9.12,5.26 -21.12,7.57 -11.94,2.58 -21.92,-0.12 -22.4,1.32 -0.71,1.18 9.83,6.64 23.45,3.79 13.64,-2.72 21.19,-11.88 20.07,-12.68"
         style="fill:#fafaf9;fill-opacity:1;fill-rule:nonzero;stroke:none"
         id="path388" /><path
         d="m 2650.99,1265.54 c 0,0 -690.6,144.67 -757.46,113 -66.87,-31.68 -375.2,-793.821 -375.2,-793.821 l 248.24,-106.797 267.19,647.588 c 0,0 483.49,-176.6 567.96,-159.049 84.46,17.539 49.27,299.079 49.27,299.079"
         style="fill:#33535f;fill-opacity:1;fill-rule:nonzero;stroke:none"
         id="path390" /><path
         d="m 2342.33,1224.92 c -10.55,-3.53 -410.04,-167.74 -438.19,-220.53 -28.16,-52.788 41.01,-929.3197 41.01,-929.3197 h 227.21 l -14.07,779.0387 443.43,112.352 -259.39,258.459"
         style="fill:#33535f;fill-opacity:1;fill-rule:nonzero;stroke:none"
         id="path392" /><path
         d="m 2604.03,964.68 c -0.03,-0.168 -2.28,0.101 -6.54,0.8 -4.79,0.848 -10.95,1.95 -18.6,3.301 -16.11,2.957 -39.38,7.539 -68.05,13.649 -57.35,12.109 -136.29,30.41 -222.32,55.07 -42.99,12.45 -83.61,25.43 -120.28,38.03 -36.54,13 -69.3,25.17 -96.26,36.71 -13.6,5.5 -25.7,10.96 -36.3,15.77 -10.66,4.72 -19.74,8.98 -27.05,12.71 -6.93,3.5 -12.52,6.31 -16.86,8.5 -3.83,1.99 -5.8,3.12 -5.72,3.28 0.08,0.16 2.21,-0.65 6.18,-2.34 4.44,-1.95 10.17,-4.48 17.26,-7.6 7.43,-3.44 16.62,-7.43 27.36,-11.88 10.69,-4.56 22.86,-9.76 36.51,-15.03 27.09,-11.08 59.9,-22.86 96.43,-35.58 36.69,-12.33 77.27,-25.14 120.18,-37.57 85.87,-24.61 164.57,-43.461 221.66,-56.48 28.1,-6.34 51.07,-11.508 67.67,-15.25 7.56,-1.75 13.67,-3.168 18.39,-4.258 4.19,-1.032 6.38,-1.653 6.34,-1.832"
         style="fill:#17282f;fill-opacity:1;fill-rule:nonzero;stroke:none"
         id="path394" /><path
         d="m 1904.23,803.031 c -0.36,-0.031 -1.09,4.649 -2.1,13.129 -1,9.508 -2.27,21.559 -3.79,35.949 -1.45,15.539 -3.12,33.551 -4.97,53.36 -1.62,19.992 -4.46,42.519 -0.1,66.09 4.23,23.781 18.08,43.461 33.17,57.121 15.17,13.92 31.57,22.78 45.44,29.23 13.97,6.41 25.67,10.49 33.74,13.29 8.09,2.74 12.63,4.05 12.76,3.72 0.38,-0.93 -17.57,-7.18 -44.9,-20.33 -13.51,-6.78 -29.32,-15.79 -43.77,-29.42 -14.42,-13.45 -27.31,-32.08 -31.32,-54.592 -4.19,-22.449 -1.62,-44.668 -0.23,-64.707 1.42,-19.851 2.72,-37.891 3.84,-53.461 0.86,-14.43 1.58,-26.531 2.15,-36.09 0.39,-8.519 0.44,-13.261 0.08,-13.289"
         style="fill:#17282f;fill-opacity:1;fill-rule:nonzero;stroke:none"
         id="path396" /><path
         d="m 2103.54,878.34 c 0.58,1.308 13.09,-2.918 27.94,-9.461 14.86,-6.527 26.43,-12.899 25.85,-14.219 -0.58,-1.301 -13.09,2.918 -27.94,9.461 -14.86,6.527 -26.43,12.899 -25.85,14.219"
         style="fill:#17282f;fill-opacity:1;fill-rule:nonzero;stroke:none"
         id="path398" /><path
         d="m 2123.58,902.301 c 1.4,0.597 7.7,-12 18.09,-25.653 10.29,-13.726 20.69,-23.226 19.73,-24.41 -0.78,-1.109 -13.11,6.934 -23.88,21.274 -10.86,14.277 -15.21,28.34 -13.94,28.789"
         style="fill:#17282f;fill-opacity:1;fill-rule:nonzero;stroke:none"
         id="path400" /><path
         d="m 2210.8,866.328 c 0.16,-0.109 -0.67,-1.879 -3.5,-3.566 -2.77,-1.793 -7.53,-2.992 -13.17,-3.114 -5.6,-0.289 -12.3,0.59 -18.88,-0.488 -6.78,-0.871 -11.33,-6.301 -11.29,-14.469 -0.26,-33.281 -1.35,-60.703 -2.83,-60.632 -1.39,0.07 -2.65,27.07 -2.37,60.941 0.24,4.32 1.13,9.238 4.29,12.91 2.98,3.731 7.55,5.469 11.42,5.981 7.87,0.949 14.32,-0.411 19.69,-0.559 10.94,-1.121 16.12,3.559 16.64,2.996"
         style="fill:#17282f;fill-opacity:1;fill-rule:nonzero;stroke:none"
         id="path402" /><path
         d="m 2158.42,1392.89 2.48,11.48 v 0 l -2.48,-11.48"
         style="fill:#a7a9a8;fill-opacity:1;fill-rule:nonzero;stroke:none"
         id="path404" /><path
         d="m 2627.06,1345.26 -131.55,10.57 c 0.54,0.55 1.09,1.11 1.64,1.69 8.72,9.11 14.94,17.3 13.9,18.3 -0.07,0.06 -0.17,0.1 -0.3,0.1 -1.81,0 -9.24,-6.3 -17.36,-14.8 -1.56,-1.63 -3.04,-3.23 -4.42,-4.77 l -109.45,8.79 c -3.11,7.28 -5.83,12.2 -6.91,12.2 -0.03,0 -0.07,-0.01 -0.1,-0.02 -0.9,-0.33 -0.05,-5.03 1.95,-11.77 l -115.58,9.28 c 5.57,3.76 9.56,6.25 9.16,7.25 -0.07,0.22 -0.41,0.33 -0.98,0.33 -2.46,0 -9.16,-2.17 -16.3,-6.92 l -94.45,7.58 2.11,9.82 2.48,11.48 c 105.88,-3.56 272.83,-6.91 385.37,-6.91 22.77,0 43.32,0.14 60.68,0.44 v 0 l 20.11,-52.64"
         style="fill:#ba2c42;fill-opacity:1;fill-rule:nonzero;stroke:none"
         id="path406" /><path
         d="m 2546.27,1397.46 c -112.54,0 -279.49,3.35 -385.37,6.91 v 0 0 l 446.05,-6.47 c -17.36,-0.3 -37.91,-0.44 -60.68,-0.44"
         style="fill:#ba7562;fill-opacity:1;fill-rule:nonzero;stroke:none"
         id="path408" /><path
         d="m 2258.88,1374.83 -8.12,0.66 c 7.14,4.75 13.84,6.92 16.3,6.92 0.57,0 0.91,-0.11 0.98,-0.33 0.4,-1 -3.59,-3.49 -9.16,-7.25"
         style="fill:#a4a6a5;fill-opacity:1;fill-rule:nonzero;stroke:none"
         id="path410" /><path
         d="m 2379.52,1365.14 -5.06,0.41 c -2,6.74 -2.85,11.44 -1.95,11.77 0.03,0.01 0.07,0.02 0.1,0.02 1.08,0 3.8,-4.92 6.91,-12.2"
         style="fill:#a4a6a5;fill-opacity:1;fill-rule:nonzero;stroke:none"
         id="path412" /><path
         d="m 2495.51,1355.83 -6.54,0.52 c 1.38,1.54 2.86,3.14 4.42,4.77 8.12,8.5 15.55,14.8 17.36,14.8 0.13,0 0.23,-0.04 0.3,-0.1 1.04,-1 -5.18,-9.19 -13.9,-18.3 -0.55,-0.58 -1.1,-1.14 -1.64,-1.69"
         style="fill:#a4a6a5;fill-opacity:1;fill-rule:nonzero;stroke:none"
         id="path414" /><path
         d="M 3430.34,1486.39 H 655.387 v -74.1 H 803.82 L 727.309,4.89844 769.555,2.60156 846.195,1412.29 H 3278.98 L 3344.26,3.75 h 42.35 l -65.27,1408.54 h 109 v 74.1"
         style="fill:#17282f;fill-opacity:1;fill-rule:nonzero;stroke:none"
         id="path416" /><path
         d="m 1464.75,1923.99 153.88,-449.66 h 696.76 l -5.14,23.16 -281.74,8.71 -129.8,418.03 -433.96,-0.24"
         style="fill:#17282f;fill-opacity:1;fill-rule:nonzero;stroke:none"
         id="path418" /><path
         d="m 1773.51,1712.79 c 4.6,-18.43 -3.29,-36.47 -17.63,-40.3 -14.33,-3.84 -29.68,7.99 -34.28,26.41 -4.6,18.43 3.29,36.47 17.63,40.31 14.33,3.82 29.68,-7.99 34.28,-26.42"
         style="fill:#ffffff;fill-opacity:1;fill-rule:nonzero;stroke:none"
         id="path420" /></g></g></svg>
