<svg id="SvgjsSvg1078" width="288" height="288" xmlns="http://www.w3.org/2000/svg" version="1.1" xmlns:xlink="http://www.w3.org/1999/xlink" xmlns:svgjs="http://svgjs.com/svgjs"><defs id="SvgjsDefs1079"></defs><g id="SvgjsG1080"><svg xmlns="http://www.w3.org/2000/svg" xmlns:svgjs="http://svgjs.com/svgjs" xmlns:xlink="http://www.w3.org/1999/xlink" width="288" height="288"><svg xmlns="http://www.w3.org/2000/svg" width="288" height="288" viewBox="0 0 60 60"><g fill="none" fill-rule="evenodd"><path fill="#f7f4ee" d="M30,60 C46.5685433,60 60,46.5685433 60,30 C60,13.4314567 46.5685433,0 30,0 C13.4314567,0 0,13.4314567 0,30 C0,46.5685433 13.4314567,60 30,60 Z" class="color3498DB svgShape colorfff"></path><path fill="#3f3f3f" d="M30,33.4615385 L47.3076923,18.4615385 L12.6923077,18.4615385 L30,33.4615385 Z M25.3251765,31.8010536 L30,35.6382399 L34.6015813,31.8010536 L47.3076923,42.6923077 L12.6923077,42.6923077 L25.3251765,31.8010536 Z M11.5384615,41.5384615 L11.5384615,19.6153846 L24.2307692,30.5769231 L11.5384615,41.5384615 Z M48.4615385,41.5384615 L48.4615385,19.6153846 L35.7692308,30.5769231 L48.4615385,41.5384615 Z" class="colorFFF svgShape color3f3f3f"></path></g></svg></svg></g></svg>